<svg xmlns="http://www.w3.org/2000/svg" viewBox="0 0 1500 1200" width="1500" height="1200" font-family="Segoe UI, Arial, sans-serif">

  <!-- Background -->
  <rect width="1500" height="1200" fill="#f8f9fa" rx="8"/>
  <rect x="10" y="10" width="1480" height="1180" fill="none" stroke="#dee2e6" stroke-width="2" rx="6"/>

  <!-- Title -->
  <text x="750" y="48" text-anchor="middle" font-size="22" font-weight="bold" fill="#212529">Door Controller — Schaltplan</text>
  <text x="750" y="70" text-anchor="middle" font-size="13" fill="#6c757d">ESP32 + BTS7960 + Waveshare Motor L-Shaped 240RPM</text>
  <line x1="40" y1="82" x2="1460" y2="82" stroke="#dee2e6" stroke-width="1"/>

  <!-- ============================================================ -->
  <!-- POWER SECTION                                                 -->
  <!-- ============================================================ -->

  <!-- 12V Power Supply -->
  <rect x="60" y="110" width="140" height="60" rx="8" fill="#fff" stroke="#dc3545" stroke-width="2"/>
  <text x="130" y="138" text-anchor="middle" font-size="14" font-weight="bold" fill="#dc3545">12V Netzteil</text>
  <text x="130" y="158" text-anchor="middle" font-size="11" fill="#6c757d">min. 3A</text>

  <!-- 12V Rail line -->
  <line x1="200" y1="140" x2="1140" y2="140" stroke="#dc3545" stroke-width="2.5"/>
  <text x="420" y="130" font-size="10" fill="#dc3545" font-weight="bold">12V Rail</text>

  <!-- 12V Decoupling: 470µF + 100nF -->
  <g transform="translate(500, 140)">
    <!-- 470µF Elko -->
    <line x1="0" y1="0" x2="0" y2="14" stroke="#dc3545" stroke-width="1.5"/>
    <line x1="-8" y1="14" x2="8" y2="14" stroke="#212529" stroke-width="2"/>
    <path d="M-8,19 Q0,22 8,19" fill="none" stroke="#212529" stroke-width="2"/>
    <text x="-3" y="14" font-size="7" fill="#212529">+</text>
    <line x1="0" y1="19" x2="0" y2="34" stroke="#6c757d" stroke-width="1.5"/>
    <text x="12" y="22" font-size="9" fill="#495057">470µF</text>
    <text x="12" y="32" font-size="8" fill="#6c757d">25V</text>
    <!-- GND symbol -->
    <line x1="-6" y1="34" x2="6" y2="34" stroke="#6c757d" stroke-width="2"/>
    <line x1="-3" y1="38" x2="3" y2="38" stroke="#6c757d" stroke-width="1.5"/>
    <line x1="-1" y1="42" x2="1" y2="42" stroke="#6c757d" stroke-width="1"/>
  </g>

  <g transform="translate(570, 140)">
    <!-- 100nF Keramik -->
    <line x1="0" y1="0" x2="0" y2="14" stroke="#dc3545" stroke-width="1.5"/>
    <line x1="-7" y1="14" x2="7" y2="14" stroke="#212529" stroke-width="2"/>
    <line x1="-7" y1="19" x2="7" y2="19" stroke="#212529" stroke-width="2"/>
    <line x1="0" y1="19" x2="0" y2="34" stroke="#6c757d" stroke-width="1.5"/>
    <text x="10" y="22" font-size="9" fill="#495057">100nF</text>
    <!-- GND symbol -->
    <line x1="-6" y1="34" x2="6" y2="34" stroke="#6c757d" stroke-width="2"/>
    <line x1="-3" y1="38" x2="3" y2="38" stroke="#6c757d" stroke-width="1.5"/>
    <line x1="-1" y1="42" x2="1" y2="42" stroke="#6c757d" stroke-width="1"/>
  </g>

  <!-- Junction dot on 12V rail at Buck Converter tap -->
  <circle cx="300" cy="140" r="3.5" fill="#dc3545"/>

  <!-- Buck Converter -->
  <line x1="300" y1="140" x2="300" y2="195" stroke="#dc3545" stroke-width="2"/>
  <rect x="230" y="195" width="140" height="50" rx="6" fill="#fff" stroke="#fd7e14" stroke-width="2"/>
  <text x="300" y="218" text-anchor="middle" font-size="13" font-weight="bold" fill="#fd7e14">Buck Converter</text>
  <text x="300" y="236" text-anchor="middle" font-size="11" fill="#6c757d">12V → 5V</text>

  <!-- 5V Rail line -->
  <line x1="370" y1="220" x2="1140" y2="220" stroke="#fd7e14" stroke-width="2.5"/>
  <text x="420" y="213" font-size="10" fill="#fd7e14" font-weight="bold">5V Rail</text>

  <!-- 5V Decoupling: 100µF + 100nF -->
  <g transform="translate(500, 220)">
    <line x1="0" y1="0" x2="0" y2="12" stroke="#fd7e14" stroke-width="1.5"/>
    <line x1="-8" y1="12" x2="8" y2="12" stroke="#212529" stroke-width="2"/>
    <path d="M-8,17 Q0,20 8,17" fill="none" stroke="#212529" stroke-width="2"/>
    <text x="-3" y="12" font-size="7" fill="#212529">+</text>
    <line x1="0" y1="17" x2="0" y2="30" stroke="#6c757d" stroke-width="1.5"/>
    <text x="12" y="20" font-size="9" fill="#495057">100µF</text>
    <text x="12" y="30" font-size="8" fill="#6c757d">10V</text>
    <line x1="-6" y1="30" x2="6" y2="30" stroke="#6c757d" stroke-width="2"/>
    <line x1="-3" y1="34" x2="3" y2="34" stroke="#6c757d" stroke-width="1.5"/>
    <line x1="-1" y1="38" x2="1" y2="38" stroke="#6c757d" stroke-width="1"/>
  </g>

  <g transform="translate(570, 220)">
    <line x1="0" y1="0" x2="0" y2="12" stroke="#fd7e14" stroke-width="1.5"/>
    <line x1="-7" y1="12" x2="7" y2="12" stroke="#212529" stroke-width="2"/>
    <line x1="-7" y1="17" x2="7" y2="17" stroke="#212529" stroke-width="2"/>
    <line x1="0" y1="17" x2="0" y2="30" stroke="#6c757d" stroke-width="1.5"/>
    <text x="10" y="20" font-size="9" fill="#495057">100nF</text>
    <line x1="-6" y1="30" x2="6" y2="30" stroke="#6c757d" stroke-width="2"/>
    <line x1="-3" y1="34" x2="3" y2="34" stroke="#6c757d" stroke-width="1.5"/>
    <line x1="-1" y1="38" x2="1" y2="38" stroke="#6c757d" stroke-width="1"/>
  </g>

  <!-- 5V to ESP32 VIN -->
  <circle cx="660" cy="220" r="3.5" fill="#fd7e14"/>
  <line x1="660" y1="220" x2="660" y2="310" stroke="#fd7e14" stroke-width="2"/>
  <line x1="660" y1="310" x2="330" y2="310" stroke="#fd7e14" stroke-width="2"/>
  <text x="664" y="278" font-size="9" fill="#fd7e14">→ VIN</text>

  <!-- 100nF at ESP32 VIN -->
  <g transform="translate(450, 310)">
    <line x1="0" y1="0" x2="0" y2="12" stroke="#fd7e14" stroke-width="1.5"/>
    <line x1="-7" y1="12" x2="7" y2="12" stroke="#212529" stroke-width="2"/>
    <line x1="-7" y1="17" x2="7" y2="17" stroke="#212529" stroke-width="2"/>
    <line x1="0" y1="17" x2="0" y2="30" stroke="#6c757d" stroke-width="1.5"/>
    <text x="10" y="18" font-size="9" fill="#495057">100nF</text>
    <line x1="-6" y1="30" x2="6" y2="30" stroke="#6c757d" stroke-width="2"/>
    <line x1="-3" y1="34" x2="3" y2="34" stroke="#6c757d" stroke-width="1.5"/>
    <line x1="-1" y1="38" x2="1" y2="38" stroke="#6c757d" stroke-width="1"/>
  </g>

  <!-- 12V + 5V to BTS7960 -->
  <circle cx="1140" cy="140" r="3.5" fill="#dc3545"/>
  <line x1="1140" y1="140" x2="1140" y2="330" stroke="#dc3545" stroke-width="2"/>
  <text x="1144" y="175" font-size="9" fill="#dc3545">→ B+</text>

  <circle cx="1140" cy="220" r="3.5" fill="#fd7e14"/>
  <line x1="1140" y1="220" x2="1110" y2="220" stroke="#fd7e14" stroke-width="2"/>
  <line x1="1110" y1="220" x2="1110" y2="330" stroke="#fd7e14" stroke-width="2"/>
  <text x="1114" y="265" font-size="9" fill="#fd7e14">→ VCC</text>

  <!-- ============================================================ -->
  <!-- ESP32 BLOCK                                                   -->
  <!-- ============================================================ -->

  <rect x="80" y="290" width="250" height="520" rx="10" fill="#fff" stroke="#0d6efd" stroke-width="2.5"/>
  <rect x="80" y="290" width="250" height="32" rx="10" fill="#0d6efd"/>
  <rect x="80" y="308" width="250" height="14" fill="#0d6efd"/>
  <text x="205" y="312" text-anchor="middle" font-size="15" font-weight="bold" fill="#fff">ESP32 DevKit</text>

  <!-- ESP32 Pin Labels (right side) -->
  <text x="310" y="360" font-size="11" fill="#212529" font-weight="bold">VIN</text>
  <text x="100" y="360" font-size="10" fill="#6c757d">5V Power</text>

  <!-- Divider -->
  <line x1="95" y1="375" x2="315" y2="375" stroke="#e9ecef" stroke-width="1"/>
  <text x="100" y="393" font-size="10" fill="#6c757d" font-style="italic">Motor Control</text>

  <text x="310" y="418" font-size="11" fill="#212529" font-weight="bold">GPIO 25</text>
  <text x="310" y="458" font-size="11" fill="#212529" font-weight="bold">GPIO 26</text>
  <text x="310" y="498" font-size="11" fill="#212529" font-weight="bold">GPIO 27</text>
  <text x="310" y="538" font-size="11" fill="#212529" font-weight="bold">GPIO 14</text>

  <line x1="95" y1="555" x2="315" y2="555" stroke="#e9ecef" stroke-width="1"/>
  <text x="100" y="573" font-size="10" fill="#6c757d" font-style="italic">Current Sense (ADC)</text>

  <text x="310" y="598" font-size="11" fill="#212529" font-weight="bold">GPIO 34</text>
  <text x="310" y="638" font-size="11" fill="#212529" font-weight="bold">GPIO 35</text>

  <line x1="95" y1="655" x2="315" y2="655" stroke="#e9ecef" stroke-width="1"/>
  <text x="100" y="673" font-size="10" fill="#6c757d" font-style="italic">Endstops</text>

  <text x="310" y="698" font-size="11" fill="#212529" font-weight="bold">GPIO 32</text>
  <text x="310" y="738" font-size="11" fill="#212529" font-weight="bold">GPIO 33</text>

  <text x="310" y="778" font-size="11" fill="#212529" font-weight="bold">GND</text>

  <!-- Pin connection dots on ESP32 -->
  <circle cx="380" cy="356" r="3" fill="#fd7e14"/>
  <circle cx="380" cy="414" r="3" fill="#198754"/>
  <circle cx="380" cy="454" r="3" fill="#198754"/>
  <circle cx="380" cy="494" r="3" fill="#198754"/>
  <circle cx="380" cy="534" r="3" fill="#198754"/>
  <circle cx="380" cy="594" r="3" fill="#0d6efd"/>
  <circle cx="380" cy="634" r="3" fill="#0d6efd"/>
  <circle cx="380" cy="694" r="3" fill="#6c757d"/>
  <circle cx="380" cy="734" r="3" fill="#6c757d"/>
  <circle cx="380" cy="774" r="3" fill="#6c757d"/>

  <!-- Short pin lines from ESP32 -->
  <line x1="330" y1="356" x2="380" y2="356" stroke="#fd7e14" stroke-width="1.5"/>
  <line x1="330" y1="414" x2="380" y2="414" stroke="#198754" stroke-width="1.5"/>
  <line x1="330" y1="454" x2="380" y2="454" stroke="#198754" stroke-width="1.5"/>
  <line x1="330" y1="494" x2="380" y2="494" stroke="#198754" stroke-width="1.5"/>
  <line x1="330" y1="534" x2="380" y2="534" stroke="#198754" stroke-width="1.5"/>
  <line x1="330" y1="594" x2="380" y2="594" stroke="#0d6efd" stroke-width="1.5"/>
  <line x1="330" y1="634" x2="380" y2="634" stroke="#0d6efd" stroke-width="1.5"/>
  <line x1="330" y1="694" x2="380" y2="694" stroke="#6c757d" stroke-width="1.5"/>
  <line x1="330" y1="734" x2="380" y2="734" stroke="#6c757d" stroke-width="1.5"/>
  <line x1="330" y1="774" x2="380" y2="774" stroke="#6c757d" stroke-width="1.5"/>

  <!-- ============================================================ -->
  <!-- BTS7960 BLOCK                                                 -->
  <!-- ============================================================ -->

  <rect x="1060" y="320" width="240" height="430" rx="10" fill="#fff" stroke="#dc3545" stroke-width="2.5"/>
  <rect x="1060" y="320" width="240" height="32" rx="10" fill="#dc3545"/>
  <rect x="1060" y="338" width="240" height="14" fill="#dc3545"/>
  <text x="1180" y="342" text-anchor="middle" font-size="15" font-weight="bold" fill="#fff">BTS7960 H-Bridge</text>

  <!-- BTS7960 Pin Labels (left side) -->
  <text x="1073" y="380" font-size="11" fill="#212529" font-weight="bold">VCC</text>
  <text x="1200" y="380" font-size="10" fill="#fd7e14">← 5V</text>

  <text x="1073" y="410" font-size="11" fill="#212529" font-weight="bold">B+</text>
  <text x="1200" y="410" font-size="10" fill="#dc3545">← 12V</text>

  <line x1="1075" y1="425" x2="1285" y2="425" stroke="#e9ecef" stroke-width="1"/>

  <text x="1073" y="455" font-size="11" fill="#212529" font-weight="bold">RPWM</text>
  <text x="1073" y="490" font-size="11" fill="#212529" font-weight="bold">LPWM</text>
  <text x="1073" y="525" font-size="11" fill="#212529" font-weight="bold">R_EN</text>
  <text x="1073" y="560" font-size="11" fill="#212529" font-weight="bold">L_EN</text>

  <line x1="1075" y1="575" x2="1285" y2="575" stroke="#e9ecef" stroke-width="1"/>

  <text x="1073" y="600" font-size="11" fill="#212529" font-weight="bold">R_IS</text>
  <text x="1073" y="635" font-size="11" fill="#212529" font-weight="bold">L_IS</text>

  <line x1="1075" y1="650" x2="1285" y2="650" stroke="#e9ecef" stroke-width="1"/>

  <text x="1073" y="675" font-size="11" fill="#212529" font-weight="bold">M+</text>
  <text x="1073" y="710" font-size="11" fill="#212529" font-weight="bold">M-</text>

  <text x="1073" y="740" font-size="11" fill="#212529" font-weight="bold">B- / GND</text>

  <!-- Pin connection dots on BTS7960 -->
  <circle cx="1040" cy="451" r="3" fill="#198754"/>
  <circle cx="1040" cy="486" r="3" fill="#198754"/>
  <circle cx="1040" cy="521" r="3" fill="#198754"/>
  <circle cx="1040" cy="556" r="3" fill="#198754"/>
  <circle cx="1040" cy="596" r="3" fill="#0d6efd"/>
  <circle cx="1040" cy="631" r="3" fill="#0d6efd"/>

  <!-- Short pin lines into BTS7960 -->
  <line x1="1040" y1="451" x2="1060" y2="451" stroke="#198754" stroke-width="1.5"/>
  <line x1="1040" y1="486" x2="1060" y2="486" stroke="#198754" stroke-width="1.5"/>
  <line x1="1040" y1="521" x2="1060" y2="521" stroke="#198754" stroke-width="1.5"/>
  <line x1="1040" y1="556" x2="1060" y2="556" stroke="#198754" stroke-width="1.5"/>
  <line x1="1040" y1="596" x2="1060" y2="596" stroke="#0d6efd" stroke-width="1.5"/>
  <line x1="1040" y1="631" x2="1060" y2="631" stroke="#0d6efd" stroke-width="1.5"/>

  <!-- Power into BTS7960 -->
  <line x1="1110" y1="330" x2="1110" y2="374" stroke="#fd7e14" stroke-width="2"/>
  <line x1="1140" y1="330" x2="1140" y2="404" stroke="#dc3545" stroke-width="2"/>

  <!-- ============================================================ -->
  <!-- MOTOR CONTROL SIGNALS (with Pull-Down Resistors)              -->
  <!-- ============================================================ -->

  <!-- GPIO 25 → RPWM -->
  <line x1="380" y1="414" x2="1040" y2="414" stroke="#198754" stroke-width="1.8"/>
  <line x1="1040" y1="414" x2="1040" y2="451" stroke="#198754" stroke-width="1.8"/>
  <!-- Pull-down 10kΩ -->
  <g transform="translate(460, 414)">
    <line x1="0" y1="0" x2="0" y2="8" stroke="#198754" stroke-width="1"/>
    <rect x="-5" y="8" width="10" height="24" rx="2" fill="#fff" stroke="#212529" stroke-width="1.2"/>
    <text x="9" y="24" font-size="8" fill="#495057">10kΩ</text>
    <line x1="0" y1="32" x2="0" y2="40" stroke="#6c757d" stroke-width="1"/>
    <line x1="-5" y1="40" x2="5" y2="40" stroke="#6c757d" stroke-width="1.5"/>
    <line x1="-3" y1="43" x2="3" y2="43" stroke="#6c757d" stroke-width="1"/>
    <line x1="-1" y1="46" x2="1" y2="46" stroke="#6c757d" stroke-width="0.8"/>
  </g>
  <circle cx="460" cy="414" r="2.5" fill="#198754"/>
  <text x="700" y="408" font-size="9" fill="#198754">RPWM</text>

  <!-- GPIO 26 → LPWM -->
  <line x1="380" y1="454" x2="1040" y2="454" stroke="#198754" stroke-width="1.8"/>
  <line x1="1040" y1="454" x2="1040" y2="486" stroke="#198754" stroke-width="1.8"/>
  <g transform="translate(520, 454)">
    <line x1="0" y1="0" x2="0" y2="8" stroke="#198754" stroke-width="1"/>
    <rect x="-5" y="8" width="10" height="24" rx="2" fill="#fff" stroke="#212529" stroke-width="1.2"/>
    <text x="9" y="24" font-size="8" fill="#495057">10kΩ</text>
    <line x1="0" y1="32" x2="0" y2="40" stroke="#6c757d" stroke-width="1"/>
    <line x1="-5" y1="40" x2="5" y2="40" stroke="#6c757d" stroke-width="1.5"/>
    <line x1="-3" y1="43" x2="3" y2="43" stroke="#6c757d" stroke-width="1"/>
    <line x1="-1" y1="46" x2="1" y2="46" stroke="#6c757d" stroke-width="0.8"/>
  </g>
  <circle cx="520" cy="454" r="2.5" fill="#198754"/>
  <text x="700" y="448" font-size="9" fill="#198754">LPWM</text>

  <!-- GPIO 27 → R_EN -->
  <line x1="380" y1="494" x2="1040" y2="494" stroke="#198754" stroke-width="1.8"/>
  <line x1="1040" y1="494" x2="1040" y2="521" stroke="#198754" stroke-width="1.8"/>
  <g transform="translate(580, 494)">
    <line x1="0" y1="0" x2="0" y2="8" stroke="#198754" stroke-width="1"/>
    <rect x="-5" y="8" width="10" height="24" rx="2" fill="#fff" stroke="#212529" stroke-width="1.2"/>
    <text x="9" y="24" font-size="8" fill="#495057">10kΩ</text>
    <line x1="0" y1="32" x2="0" y2="40" stroke="#6c757d" stroke-width="1"/>
    <line x1="-5" y1="40" x2="5" y2="40" stroke="#6c757d" stroke-width="1.5"/>
    <line x1="-3" y1="43" x2="3" y2="43" stroke="#6c757d" stroke-width="1"/>
    <line x1="-1" y1="46" x2="1" y2="46" stroke="#6c757d" stroke-width="0.8"/>
  </g>
  <circle cx="580" cy="494" r="2.5" fill="#198754"/>
  <text x="700" y="488" font-size="9" fill="#198754">R_EN</text>

  <!-- GPIO 14 → L_EN -->
  <line x1="380" y1="534" x2="1040" y2="534" stroke="#198754" stroke-width="1.8"/>
  <line x1="1040" y1="534" x2="1040" y2="556" stroke="#198754" stroke-width="1.8"/>
  <g transform="translate(640, 534)">
    <line x1="0" y1="0" x2="0" y2="8" stroke="#198754" stroke-width="1"/>
    <rect x="-5" y="8" width="10" height="24" rx="2" fill="#fff" stroke="#212529" stroke-width="1.2"/>
    <text x="9" y="24" font-size="8" fill="#495057">10kΩ</text>
    <line x1="0" y1="32" x2="0" y2="40" stroke="#6c757d" stroke-width="1"/>
    <line x1="-5" y1="40" x2="5" y2="40" stroke="#6c757d" stroke-width="1.5"/>
    <line x1="-3" y1="43" x2="3" y2="43" stroke="#6c757d" stroke-width="1"/>
    <line x1="-1" y1="46" x2="1" y2="46" stroke="#6c757d" stroke-width="0.8"/>
  </g>
  <circle cx="640" cy="534" r="2.5" fill="#198754"/>
  <text x="700" y="528" font-size="9" fill="#198754">L_EN</text>

  <!-- ============================================================ -->
  <!-- CURRENT SENSE (with Voltage Divider + Zener)                  -->
  <!-- ============================================================ -->

  <!-- R_IS → GPIO 34 -->
  <line x1="1040" y1="596" x2="880" y2="596" stroke="#0d6efd" stroke-width="1.8"/>

  <!-- 10kΩ top resistor -->
  <rect x="842" y="588" width="38" height="10" rx="2" fill="#fff" stroke="#212529" stroke-width="1.2"/>
  <text x="861" y="586" text-anchor="middle" font-size="8" fill="#495057">10kΩ</text>

  <!-- Junction after resistor -->
  <line x1="842" y1="596" x2="810" y2="596" stroke="#0d6efd" stroke-width="1.8"/>
  <circle cx="810" cy="596" r="2.5" fill="#0d6efd"/>

  <!-- 20kΩ bottom resistor (to GND) -->
  <line x1="810" y1="596" x2="810" y2="608" stroke="#0d6efd" stroke-width="1"/>
  <rect x="805" y="608" width="10" height="24" rx="2" fill="#fff" stroke="#212529" stroke-width="1.2"/>
  <text x="818" y="624" font-size="8" fill="#495057">20kΩ</text>
  <line x1="810" y1="632" x2="810" y2="644" stroke="#6c757d" stroke-width="1"/>
  <line x1="804" y1="644" x2="816" y2="644" stroke="#6c757d" stroke-width="1.5"/>
  <line x1="806" y1="647" x2="814" y2="647" stroke="#6c757d" stroke-width="1"/>
  <line x1="808" y1="650" x2="812" y2="650" stroke="#6c757d" stroke-width="0.8"/>

  <!-- 3.3V Zener (parallel to 20kΩ) -->
  <line x1="810" y1="596" x2="770" y2="596" stroke="#0d6efd" stroke-width="1"/>
  <line x1="770" y1="596" x2="770" y2="608" stroke="#0d6efd" stroke-width="1"/>
  <!-- Zener symbol -->
  <polygon points="762,617 770,608 778,617" fill="none" stroke="#212529" stroke-width="1.3"/>
  <line x1="760" y1="617" x2="780" y2="617" stroke="#212529" stroke-width="1.3"/>
  <line x1="760" y1="617" x2="760" y2="614" stroke="#212529" stroke-width="1.3"/>
  <line x1="780" y1="617" x2="780" y2="620" stroke="#212529" stroke-width="1.3"/>
  <text x="745" y="616" font-size="8" fill="#495057" text-anchor="end">ZD 3.3V</text>
  <line x1="770" y1="617" x2="770" y2="644" stroke="#6c757d" stroke-width="1"/>
  <line x1="764" y1="644" x2="776" y2="644" stroke="#6c757d" stroke-width="1.5"/>
  <line x1="766" y1="647" x2="774" y2="647" stroke="#6c757d" stroke-width="1"/>
  <line x1="768" y1="650" x2="772" y2="650" stroke="#6c757d" stroke-width="0.8"/>

  <!-- Wire from junction to ESP32 GPIO 34 -->
  <line x1="810" y1="596" x2="380" y2="594" stroke="#0d6efd" stroke-width="1.8"/>
  <text x="560" y="588" font-size="9" fill="#0d6efd">R_IS (Current Sense)</text>

  <!-- L_IS → GPIO 35 -->
  <line x1="1040" y1="631" x2="940" y2="631" stroke="#0d6efd" stroke-width="1.8"/>

  <!-- 10kΩ top resistor -->
  <rect x="902" y="625" width="38" height="10" rx="2" fill="#fff" stroke="#212529" stroke-width="1.2"/>
  <text x="921" y="622" text-anchor="middle" font-size="8" fill="#495057">10kΩ</text>

  <line x1="902" y1="631" x2="870" y2="631" stroke="#0d6efd" stroke-width="1.8"/>
  <circle cx="870" cy="631" r="2.5" fill="#0d6efd"/>

  <!-- 20kΩ bottom resistor -->
  <line x1="870" y1="631" x2="870" y2="643" stroke="#0d6efd" stroke-width="1"/>
  <rect x="865" y="643" width="10" height="24" rx="2" fill="#fff" stroke="#212529" stroke-width="1.2"/>
  <text x="878" y="659" font-size="8" fill="#495057">20kΩ</text>
  <line x1="870" y1="667" x2="870" y2="679" stroke="#6c757d" stroke-width="1"/>
  <line x1="864" y1="679" x2="876" y2="679" stroke="#6c757d" stroke-width="1.5"/>
  <line x1="866" y1="682" x2="874" y2="682" stroke="#6c757d" stroke-width="1"/>
  <line x1="868" y1="685" x2="872" y2="685" stroke="#6c757d" stroke-width="0.8"/>

  <!-- 3.3V Zener -->
  <line x1="870" y1="631" x2="830" y2="631" stroke="#0d6efd" stroke-width="1"/>
  <line x1="830" y1="631" x2="830" y2="643" stroke="#0d6efd" stroke-width="1"/>
  <polygon points="822,652 830,643 838,652" fill="none" stroke="#212529" stroke-width="1.3"/>
  <line x1="820" y1="652" x2="840" y2="652" stroke="#212529" stroke-width="1.3"/>
  <line x1="820" y1="652" x2="820" y2="649" stroke="#212529" stroke-width="1.3"/>
  <line x1="840" y1="652" x2="840" y2="655" stroke="#212529" stroke-width="1.3"/>
  <text x="805" y="651" font-size="8" fill="#495057" text-anchor="end">ZD 3.3V</text>
  <line x1="830" y1="652" x2="830" y2="679" stroke="#6c757d" stroke-width="1"/>
  <line x1="824" y1="679" x2="836" y2="679" stroke="#6c757d" stroke-width="1.5"/>
  <line x1="826" y1="682" x2="834" y2="682" stroke="#6c757d" stroke-width="1"/>
  <line x1="828" y1="685" x2="832" y2="685" stroke="#6c757d" stroke-width="0.8"/>

  <!-- Wire to ESP32 GPIO 35 -->
  <line x1="870" y1="631" x2="410" y2="631" stroke="#0d6efd" stroke-width="1.8"/>
  <line x1="410" y1="631" x2="410" y2="634" stroke="#0d6efd" stroke-width="1.8"/>
  <line x1="380" y1="634" x2="410" y2="634" stroke="#0d6efd" stroke-width="1.8"/>
  <text x="560" y="625" font-size="9" fill="#0d6efd">L_IS (Current Sense)</text>

  <!-- ============================================================ -->
  <!-- MOTOR                                                         -->
  <!-- ============================================================ -->

  <!-- M+ and M- lines from BTS7960 to Motor -->
  <line x1="1300" y1="671" x2="1350" y2="671" stroke="#212529" stroke-width="2"/>
  <line x1="1300" y1="706" x2="1350" y2="706" stroke="#212529" stroke-width="2"/>
  <line x1="1350" y1="671" x2="1350" y2="785" stroke="#212529" stroke-width="2"/>
  <line x1="1350" y1="785" x2="1300" y2="785" stroke="#212529" stroke-width="2"/>
  <line x1="1350" y1="706" x2="1350" y2="815" stroke="#212529" stroke-width="2"/>
  <line x1="1350" y1="815" x2="1300" y2="815" stroke="#212529" stroke-width="2"/>

  <!-- Motor Symbol -->
  <circle cx="1240" cy="800" r="45" fill="#fff" stroke="#212529" stroke-width="2.5"/>
  <text x="1240" y="807" text-anchor="middle" font-size="28" font-weight="bold" fill="#212529">M</text>
  <!-- M+ / M- labels on motor -->
  <line x1="1285" y1="785" x2="1300" y2="785" stroke="#212529" stroke-width="2"/>
  <line x1="1285" y1="815" x2="1300" y2="815" stroke="#212529" stroke-width="2"/>
  <text x="1305" y="789" font-size="9" fill="#212529">M+</text>
  <text x="1305" y="819" font-size="9" fill="#212529">M-</text>

  <!-- Motor label -->
  <text x="1240" y="862" text-anchor="middle" font-size="12" fill="#495057" font-weight="bold">Waveshare Motor</text>
  <text x="1240" y="878" text-anchor="middle" font-size="10" fill="#6c757d">L-Shaped 240 RPM</text>

  <!-- BTS7960 GND -->
  <line x1="1180" y1="750" x2="1180" y2="785" stroke="#6c757d" stroke-width="2"/>
  <line x1="1170" y1="785" x2="1190" y2="785" stroke="#6c757d" stroke-width="2"/>
  <line x1="1173" y1="789" x2="1187" y2="789" stroke="#6c757d" stroke-width="1.5"/>
  <line x1="1176" y1="793" x2="1184" y2="793" stroke="#6c757d" stroke-width="1"/>
  <text x="1195" y="782" font-size="9" fill="#6c757d">GND</text>

  <!-- ============================================================ -->
  <!-- ENDSTOPS (with RC Filter)                                     -->
  <!-- ============================================================ -->

  <rect x="60" y="860" width="560" height="155" rx="8" fill="none" stroke="#dee2e6" stroke-width="1" stroke-dasharray="5,3"/>
  <text x="80" y="882" font-size="12" font-weight="bold" fill="#495057">Endschalter</text>

  <!-- OPEN Endstop: GPIO 32 ← 1kΩ ← junction ← Switch ← GND -->
  <line x1="380" y1="694" x2="380" y2="910" stroke="#6c757d" stroke-width="1.5"/>

  <!-- 1kΩ Series Resistor -->
  <text x="110" y="912" font-size="11" fill="#198754" font-weight="bold">OPEN</text>
  <line x1="170" y1="910" x2="220" y2="910" stroke="#6c757d" stroke-width="1.5"/>
  <rect x="220" y="903" width="38" height="10" rx="2" fill="#fff" stroke="#212529" stroke-width="1.2"/>
  <text x="239" y="900" text-anchor="middle" font-size="8" fill="#495057">1kΩ</text>
  <line x1="258" y1="910" x2="310" y2="910" stroke="#6c757d" stroke-width="1.5"/>
  <circle cx="310" cy="910" r="2.5" fill="#6c757d"/>

  <!-- 100nF Filter Cap -->
  <line x1="310" y1="910" x2="310" y2="922" stroke="#6c757d" stroke-width="1"/>
  <line x1="303" y1="922" x2="317" y2="922" stroke="#212529" stroke-width="2"/>
  <line x1="303" y1="927" x2="317" y2="927" stroke="#212529" stroke-width="2"/>
  <text x="322" y="928" font-size="8" fill="#495057">100nF</text>
  <line x1="310" y1="927" x2="310" y2="940" stroke="#6c757d" stroke-width="1"/>
  <line x1="304" y1="940" x2="316" y2="940" stroke="#6c757d" stroke-width="1.5"/>
  <line x1="306" y1="943" x2="314" y2="943" stroke="#6c757d" stroke-width="1"/>
  <line x1="308" y1="946" x2="312" y2="946" stroke="#6c757d" stroke-width="0.8"/>

  <!-- Wire from junction to GPIO 32 -->
  <line x1="310" y1="910" x2="380" y2="910" stroke="#6c757d" stroke-width="1.5"/>

  <!-- Switch Symbol (OPEN) -->
  <circle cx="170" cy="910" r="3" fill="#212529"/>
  <circle cx="143" cy="910" r="3" fill="#212529"/>
  <line x1="145" y1="908" x2="168" y2="898" stroke="#212529" stroke-width="1.8"/>

  <!-- GND for switch -->
  <line x1="100" y1="910" x2="143" y2="910" stroke="#6c757d" stroke-width="1.5"/>
  <line x1="90" y1="904" x2="90" y2="916" stroke="#6c757d" stroke-width="2"/>
  <line x1="85" y1="907" x2="85" y2="913" stroke="#6c757d" stroke-width="1.5"/>
  <line x1="80" y1="909" x2="80" y2="911" stroke="#6c757d" stroke-width="1"/>
  <line x1="90" y1="910" x2="100" y2="910" stroke="#6c757d" stroke-width="1.5"/>

  <!-- CLOSE Endstop: GPIO 33 -->
  <line x1="380" y1="734" x2="420" y2="734" stroke="#6c757d" stroke-width="1.5"/>
  <line x1="420" y1="734" x2="420" y2="970" stroke="#6c757d" stroke-width="1.5"/>

  <text x="110" y="972" font-size="11" fill="#dc3545" font-weight="bold">CLOSE</text>
  <line x1="170" y1="970" x2="220" y2="970" stroke="#6c757d" stroke-width="1.5"/>
  <rect x="220" y="963" width="38" height="10" rx="2" fill="#fff" stroke="#212529" stroke-width="1.2"/>
  <text x="239" y="960" text-anchor="middle" font-size="8" fill="#495057">1kΩ</text>
  <line x1="258" y1="970" x2="350" y2="970" stroke="#6c757d" stroke-width="1.5"/>
  <circle cx="350" cy="970" r="2.5" fill="#6c757d"/>

  <!-- 100nF Filter Cap -->
  <line x1="350" y1="970" x2="350" y2="982" stroke="#6c757d" stroke-width="1"/>
  <line x1="343" y1="982" x2="357" y2="982" stroke="#212529" stroke-width="2"/>
  <line x1="343" y1="987" x2="357" y2="987" stroke="#212529" stroke-width="2"/>
  <text x="362" y="988" font-size="8" fill="#495057">100nF</text>
  <line x1="350" y1="987" x2="350" y2="1000" stroke="#6c757d" stroke-width="1"/>
  <line x1="344" y1="1000" x2="356" y2="1000" stroke="#6c757d" stroke-width="1.5"/>
  <line x1="346" y1="1003" x2="354" y2="1003" stroke="#6c757d" stroke-width="1"/>
  <line x1="348" y1="1006" x2="352" y2="1006" stroke="#6c757d" stroke-width="0.8"/>

  <!-- Wire to GPIO 33 -->
  <line x1="350" y1="970" x2="420" y2="970" stroke="#6c757d" stroke-width="1.5"/>

  <!-- Switch Symbol (CLOSE) -->
  <circle cx="170" cy="970" r="3" fill="#212529"/>
  <circle cx="143" cy="970" r="3" fill="#212529"/>
  <line x1="145" y1="968" x2="168" y2="958" stroke="#212529" stroke-width="1.8"/>

  <line x1="100" y1="970" x2="143" y2="970" stroke="#6c757d" stroke-width="1.5"/>
  <line x1="90" y1="964" x2="90" y2="976" stroke="#6c757d" stroke-width="2"/>
  <line x1="85" y1="967" x2="85" y2="973" stroke="#6c757d" stroke-width="1.5"/>
  <line x1="80" y1="969" x2="80" y2="971" stroke="#6c757d" stroke-width="1"/>
  <line x1="90" y1="970" x2="100" y2="970" stroke="#6c757d" stroke-width="1.5"/>

  <!-- ESP32 GND -->
  <line x1="380" y1="774" x2="430" y2="774" stroke="#6c757d" stroke-width="2"/>
  <line x1="430" y1="774" x2="430" y2="800" stroke="#6c757d" stroke-width="2"/>
  <line x1="422" y1="800" x2="438" y2="800" stroke="#6c757d" stroke-width="2"/>
  <line x1="424" y1="804" x2="436" y2="804" stroke="#6c757d" stroke-width="1.5"/>
  <line x1="427" y1="808" x2="433" y2="808" stroke="#6c757d" stroke-width="1"/>

  <!-- ============================================================ -->
  <!-- LEGEND                                                        -->
  <!-- ============================================================ -->

  <rect x="700" y="870" width="380" height="145" rx="8" fill="#fff" stroke="#dee2e6" stroke-width="1.5"/>
  <text x="720" y="895" font-size="13" font-weight="bold" fill="#212529">Legende</text>

  <line x1="720" y1="915" x2="755" y2="915" stroke="#dc3545" stroke-width="2.5"/>
  <text x="762" y="919" font-size="11" fill="#495057">12V Rail</text>

  <line x1="720" y1="937" x2="755" y2="937" stroke="#fd7e14" stroke-width="2.5"/>
  <text x="762" y="941" font-size="11" fill="#495057">5V Rail</text>

  <line x1="720" y1="959" x2="755" y2="959" stroke="#198754" stroke-width="2.5"/>
  <text x="762" y="963" font-size="11" fill="#495057">Motor-Steuerung (PWM / Enable)</text>

  <line x1="720" y1="981" x2="755" y2="981" stroke="#0d6efd" stroke-width="2.5"/>
  <text x="762" y="985" font-size="11" fill="#495057">Current Sense (ADC)</text>

  <line x1="720" y1="1003" x2="755" y2="1003" stroke="#6c757d" stroke-width="2.5"/>
  <text x="762" y="1007" font-size="11" fill="#495057">GND / Endschalter</text>

  <!-- Component symbols in legend -->
  <rect x="890" y="908" width="18" height="8" rx="1.5" fill="#fff" stroke="#212529" stroke-width="1"/>
  <text x="914" y="919" font-size="11" fill="#495057">Widerstand</text>

  <line x1="895" y1="938" x2="903" y2="938" stroke="#212529" stroke-width="2"/>
  <line x1="895" y1="943" x2="903" y2="943" stroke="#212529" stroke-width="2"/>
  <text x="914" y="944" font-size="11" fill="#495057">Kondensator</text>

  <polygon points="893,964 901,958 901,970" fill="none" stroke="#212529" stroke-width="1.2"/>
  <line x1="901" y1="956" x2="901" y2="972" stroke="#212529" stroke-width="1.2"/>
  <text x="914" y="968" font-size="11" fill="#495057">Zener-Diode</text>

  <circle cx="893" cy="990" r="2.5" fill="#212529"/>
  <line x1="895" y1="988" x2="907" y2="982" stroke="#212529" stroke-width="1.5"/>
  <circle cx="907" cy="990" r="2.5" fill="#212529"/>
  <text x="914" y="994" font-size="11" fill="#495057">Schalter</text>

  <!-- ============================================================ -->
  <!-- ANNOTATIONS                                                   -->
  <!-- ============================================================ -->

  <!-- Pull-down annotation -->
  <rect x="440" y="560" width="175" height="30" rx="4" fill="#e8f5e9" stroke="#198754" stroke-width="1"/>
  <text x="528" y="580" text-anchor="middle" font-size="9" fill="#2e7d32">4× 10kΩ Pull-Down</text>
  <text x="528" y="590" text-anchor="middle" font-size="8" fill="#2e7d32" font-style="italic">Boot-Schutz</text>

  <!-- Voltage divider annotation -->
  <rect x="700" y="668" width="210" height="30" rx="4" fill="#e3f2fd" stroke="#0d6efd" stroke-width="1"/>
  <text x="805" y="688" text-anchor="middle" font-size="9" fill="#1565c0">Spannungsteiler 10k/20k + ZD 3.3V</text>
  <text x="805" y="698" text-anchor="middle" font-size="8" fill="#1565c0" font-style="italic">ADC-Schutz (max 3.3V)</text>

  <!-- Endstop annotation -->
  <rect x="430" y="928" width="165" height="30" rx="4" fill="#f5f5f5" stroke="#6c757d" stroke-width="1"/>
  <text x="513" y="948" text-anchor="middle" font-size="9" fill="#495057">1kΩ + 100nF RC-Filter</text>
  <text x="513" y="958" text-anchor="middle" font-size="8" fill="#495057" font-style="italic">Prellschutz + EMV</text>

  <!-- Decoupling annotation -->
  <rect x="470" y="148" width="160" height="18" rx="4" fill="#fff3e0" stroke="#fd7e14" stroke-width="1"/>
  <text x="550" y="161" text-anchor="middle" font-size="8" fill="#e65100">Stützkondensatoren (Brownout-Schutz)</text>

  <!-- Footer -->
  <line x1="40" y1="1150" x2="1460" y2="1150" stroke="#dee2e6" stroke-width="1"/>
  <text x="750" y="1170" text-anchor="middle" font-size="10" fill="#adb5bd">Door Controller v1.0 — Alle Massen (GND) verbinden — Kondensatoren nah an den ICs platzieren</text>

</svg>
