solid OpenSCAD_Model
  facet normal -1 0 0
    outer loop
      vertex -3 -3 0
      vertex -3 58 8
      vertex -3 58 0
    endloop
  endfacet
  facet normal -1 -0 0
    outer loop
      vertex -3 58 8
      vertex -3 -3 0
      vertex -3 -3 8
    endloop
  endfacet
  facet normal -0 0 1
    outer loop
      vertex 0 55 1
      vertex 7 0 1
      vertex 7 55 1
    endloop
  endfacet
  facet normal 0 0 1
    outer loop
      vertex 7 0 1
      vertex 0 55 1
      vertex 0 0 1
    endloop
  endfacet
  facet normal 0 0 1
    outer loop
      vertex 7 55 1
      vertex 12 58 1
      vertex 7 58 1
    endloop
  endfacet
  facet normal 0 0 1
    outer loop
      vertex 12 58 1
      vertex 7 55 1
      vertex 12 -3 1
    endloop
  endfacet
  facet normal -0 0 1
    outer loop
      vertex 7 0 1
      vertex 12 -3 1
      vertex 7 55 1
    endloop
  endfacet
  facet normal 0 0 1
    outer loop
      vertex 12 -3 1
      vertex 7 0 1
      vertex 7 -3 1
    endloop
  endfacet
  facet normal 1 -0 0
    outer loop
      vertex 12 -3 1
      vertex 12 58 0
      vertex 12 58 1
    endloop
  endfacet
  facet normal 1 0 0
    outer loop
      vertex 12 58 0
      vertex 12 -3 1
      vertex 12 -3 0
    endloop
  endfacet
  facet normal 0 0 -1
    outer loop
      vertex -3 -3 0
      vertex 12 58 0
      vertex 12 -3 0
    endloop
  endfacet
  facet normal -0 0 -1
    outer loop
      vertex 12 58 0
      vertex -3 -3 0
      vertex -3 58 0
    endloop
  endfacet
  facet normal 0 -1 0
    outer loop
      vertex -3 -3 8
      vertex 7 -3 1
      vertex 7 -3 8
    endloop
  endfacet
  facet normal 0 -1 0
    outer loop
      vertex -3 -3 0
      vertex 7 -3 1
      vertex -3 -3 8
    endloop
  endfacet
  facet normal 0 -1 0
    outer loop
      vertex 12 -3 0
      vertex 7 -3 1
      vertex -3 -3 0
    endloop
  endfacet
  facet normal 0 -1 0
    outer loop
      vertex 7 -3 1
      vertex 12 -3 0
      vertex 12 -3 1
    endloop
  endfacet
  facet normal 0 1 0
    outer loop
      vertex 12 58 1
      vertex 12 58 0
      vertex 7 58 1
    endloop
  endfacet
  facet normal 0 1 -0
    outer loop
      vertex 7 58 1
      vertex -3 58 8
      vertex 7 58 8
    endloop
  endfacet
  facet normal 0 1 0
    outer loop
      vertex 7 58 1
      vertex -3 58 0
      vertex -3 58 8
    endloop
  endfacet
  facet normal 0 1 0
    outer loop
      vertex -3 58 0
      vertex 7 58 1
      vertex 12 58 0
    endloop
  endfacet
  facet normal 0 0 1
    outer loop
      vertex 7 58 8
      vertex 0 55 8
      vertex 7 55 8
    endloop
  endfacet
  facet normal 0 0 1
    outer loop
      vertex 0 55 8
      vertex -3 58 8
      vertex 0 0 8
    endloop
  endfacet
  facet normal -0 0 1
    outer loop
      vertex -3 58 8
      vertex 0 55 8
      vertex 7 58 8
    endloop
  endfacet
  facet normal -0 0 1
    outer loop
      vertex 0 0 8
      vertex 7 -3 8
      vertex 7 0 8
    endloop
  endfacet
  facet normal 0 0 1
    outer loop
      vertex 0 0 8
      vertex -3 -3 8
      vertex 7 -3 8
    endloop
  endfacet
  facet normal 0 0 1
    outer loop
      vertex -3 -3 8
      vertex 0 0 8
      vertex -3 58 8
    endloop
  endfacet
  facet normal 1 -0 0
    outer loop
      vertex 0 0 8
      vertex 0 55 1
      vertex 0 55 8
    endloop
  endfacet
  facet normal 1 0 0
    outer loop
      vertex 0 55 1
      vertex 0 0 8
      vertex 0 0 1
    endloop
  endfacet
  facet normal 0 1 -0
    outer loop
      vertex 7 0 1
      vertex 0 0 8
      vertex 7 0 8
    endloop
  endfacet
  facet normal 0 1 0
    outer loop
      vertex 0 0 8
      vertex 7 0 1
      vertex 0 0 1
    endloop
  endfacet
  facet normal 0 -1 0
    outer loop
      vertex 0 55 1
      vertex 7 55 8
      vertex 0 55 8
    endloop
  endfacet
  facet normal 0 -1 -0
    outer loop
      vertex 7 55 8
      vertex 0 55 1
      vertex 7 55 1
    endloop
  endfacet
  facet normal 1 -0 0
    outer loop
      vertex 7 -3 8
      vertex 7 0 1
      vertex 7 0 8
    endloop
  endfacet
  facet normal 1 0 0
    outer loop
      vertex 7 0 1
      vertex 7 -3 8
      vertex 7 -3 1
    endloop
  endfacet
  facet normal 1 -0 0
    outer loop
      vertex 7 55 8
      vertex 7 58 1
      vertex 7 58 8
    endloop
  endfacet
  facet normal 1 0 0
    outer loop
      vertex 7 58 1
      vertex 7 55 8
      vertex 7 55 1
    endloop
  endfacet
endsolid OpenSCAD_Model
