solid OpenSCAD_Model
  facet normal 0 -0.0525588 0.998618
    outer loop
      vertex 0 31.3963 10.6843
      vertex 5 31.25 10.6766
      vertex 5 31.3963 10.6843
    endloop
  endfacet
  facet normal 0 -0.0525588 0.998618
    outer loop
      vertex 5 31.25 10.6766
      vertex 0 31.3963 10.6843
      vertex 0 31.25 10.6766
    endloop
  endfacet
  facet normal 0 -0.0525588 -0.998618
    outer loop
      vertex 0 31.25 13.4766
      vertex 5 31.3963 13.4689
      vertex 5 31.25 13.4766
    endloop
  endfacet
  facet normal -0 -0.0525588 -0.998618
    outer loop
      vertex 5 31.3963 13.4689
      vertex 0 31.25 13.4766
      vertex 0 31.3963 13.4689
    endloop
  endfacet
  facet normal 0 0.998618 -0.0525588
    outer loop
      vertex 5 29.85 12.0766
      vertex 0 29.8577 12.2229
      vertex 5 29.8577 12.2229
    endloop
  endfacet
  facet normal 0 0.998618 -0.0525588
    outer loop
      vertex 0 29.8577 12.2229
      vertex 5 29.85 12.0766
      vertex 0 29.85 12.0766
    endloop
  endfacet
  facet normal 0 0.629179 -0.777261
    outer loop
      vertex 0 30.3132 13.117
      vertex 5 30.4271 13.2092
      vertex 5 30.3132 13.117
    endloop
  endfacet
  facet normal 0 0.629179 -0.777261
    outer loop
      vertex 5 30.4271 13.2092
      vertex 0 30.3132 13.117
      vertex 0 30.4271 13.2092
    endloop
  endfacet
  facet normal 0 -0.777261 -0.629179
    outer loop
      vertex 0 32.3826 12.8995
      vertex 5 32.2904 13.0134
      vertex 0 32.2904 13.0134
    endloop
  endfacet
  facet normal 0 -0.777261 -0.629179
    outer loop
      vertex 5 32.2904 13.0134
      vertex 0 32.3826 12.8995
      vertex 5 32.3826 12.8995
    endloop
  endfacet
  facet normal 0 -0.965951 -0.258725
    outer loop
      vertex 0 32.6194 12.3677
      vertex 5 32.5815 12.5092
      vertex 0 32.5815 12.5092
    endloop
  endfacet
  facet normal 0 -0.965951 -0.258725
    outer loop
      vertex 5 32.5815 12.5092
      vertex 0 32.6194 12.3677
      vertex 5 32.6194 12.3677
    endloop
  endfacet
  facet normal 0 0.358293 -0.933609
    outer loop
      vertex 0 30.6806 13.3556
      vertex 5 30.8174 13.4081
      vertex 5 30.6806 13.3556
    endloop
  endfacet
  facet normal 0 0.358293 -0.933609
    outer loop
      vertex 5 30.8174 13.4081
      vertex 0 30.6806 13.3556
      vertex 0 30.8174 13.4081
    endloop
  endfacet
  facet normal 0 -0.454294 -0.890852
    outer loop
      vertex 0 31.8194 13.3556
      vertex 5 31.95 13.289
      vertex 5 31.8194 13.3556
    endloop
  endfacet
  facet normal -0 -0.454294 -0.890852
    outer loop
      vertex 5 31.95 13.289
      vertex 0 31.8194 13.3556
      vertex 0 31.95 13.289
    endloop
  endfacet
  facet normal 0 -0.998618 -0.0525588
    outer loop
      vertex 0 32.65 12.0766
      vertex 5 32.6423 12.2229
      vertex 0 32.6423 12.2229
    endloop
  endfacet
  facet normal 0 -0.998618 -0.0525588
    outer loop
      vertex 5 32.6423 12.2229
      vertex 0 32.65 12.0766
      vertex 5 32.65 12.0766
    endloop
  endfacet
  facet normal 0 0.890852 -0.454294
    outer loop
      vertex 5 29.971 12.646
      vertex 0 30.0376 12.7766
      vertex 5 30.0376 12.7766
    endloop
  endfacet
  facet normal 0 0.890852 -0.454294
    outer loop
      vertex 0 30.0376 12.7766
      vertex 5 29.971 12.646
      vertex 0 29.971 12.646
    endloop
  endfacet
  facet normal 0 0.454294 -0.890852
    outer loop
      vertex 0 30.55 13.289
      vertex 5 30.6806 13.3556
      vertex 5 30.55 13.289
    endloop
  endfacet
  facet normal 0 0.454294 -0.890852
    outer loop
      vertex 5 30.6806 13.3556
      vertex 0 30.55 13.289
      vertex 0 30.6806 13.3556
    endloop
  endfacet
  facet normal 0 0.156208 -0.987724
    outer loop
      vertex 0 30.9589 13.446
      vertex 5 31.1037 13.4689
      vertex 5 30.9589 13.446
    endloop
  endfacet
  facet normal 0 0.156208 -0.987724
    outer loop
      vertex 5 31.1037 13.4689
      vertex 0 30.9589 13.446
      vertex 0 31.1037 13.4689
    endloop
  endfacet
  facet normal 0 -0.156208 0.987724
    outer loop
      vertex 0 31.5411 10.7072
      vertex 5 31.3963 10.6843
      vertex 5 31.5411 10.7072
    endloop
  endfacet
  facet normal 0 -0.156208 0.987724
    outer loop
      vertex 5 31.3963 10.6843
      vertex 0 31.5411 10.7072
      vertex 0 31.3963 10.6843
    endloop
  endfacet
  facet normal 0 -0.358293 0.933609
    outer loop
      vertex 0 31.8194 10.7976
      vertex 5 31.6826 10.7451
      vertex 5 31.8194 10.7976
    endloop
  endfacet
  facet normal 0 -0.358293 0.933609
    outer loop
      vertex 5 31.6826 10.7451
      vertex 0 31.8194 10.7976
      vertex 0 31.6826 10.7451
    endloop
  endfacet
  facet normal 0 -0.707107 0.707107
    outer loop
      vertex 0 32.1868 11.0362
      vertex 5 32.2904 11.1398
      vertex 0 32.2904 11.1398
    endloop
  endfacet
  facet normal 0 -0.707107 0.707107
    outer loop
      vertex 5 32.2904 11.1398
      vertex 0 32.1868 11.0362
      vertex 5 32.1868 11.0362
    endloop
  endfacet
  facet normal 0 -0.544581 0.838709
    outer loop
      vertex 0 32.0729 10.944
      vertex 5 31.95 10.8642
      vertex 5 32.0729 10.944
    endloop
  endfacet
  facet normal 0 -0.544581 0.838709
    outer loop
      vertex 5 31.95 10.8642
      vertex 0 32.0729 10.944
      vertex 0 31.95 10.8642
    endloop
  endfacet
  facet normal 0 -0.965951 0.258725
    outer loop
      vertex 0 32.5815 11.644
      vertex 5 32.6194 11.7855
      vertex 0 32.6194 11.7855
    endloop
  endfacet
  facet normal 0 -0.965951 0.258725
    outer loop
      vertex 5 32.6194 11.7855
      vertex 0 32.5815 11.644
      vertex 5 32.5815 11.644
    endloop
  endfacet
  facet normal 0 -0.998618 0.0525588
    outer loop
      vertex 0 32.6423 11.9303
      vertex 5 32.65 12.0766
      vertex 0 32.65 12.0766
    endloop
  endfacet
  facet normal 0 -0.998618 0.0525588
    outer loop
      vertex 5 32.65 12.0766
      vertex 0 32.6423 11.9303
      vertex 5 32.6423 11.9303
    endloop
  endfacet
  facet normal 0 -0.890852 0.454294
    outer loop
      vertex 0 32.4624 11.3766
      vertex 5 32.529 11.5072
      vertex 0 32.529 11.5072
    endloop
  endfacet
  facet normal 0 -0.890852 0.454294
    outer loop
      vertex 5 32.529 11.5072
      vertex 0 32.4624 11.3766
      vertex 5 32.4624 11.3766
    endloop
  endfacet
  facet normal 0 -0.777261 0.629179
    outer loop
      vertex 0 32.2904 11.1398
      vertex 5 32.3826 11.2537
      vertex 0 32.3826 11.2537
    endloop
  endfacet
  facet normal 0 -0.777261 0.629179
    outer loop
      vertex 5 32.3826 11.2537
      vertex 0 32.2904 11.1398
      vertex 5 32.2904 11.1398
    endloop
  endfacet
  facet normal 0 -0.258725 -0.965951
    outer loop
      vertex 0 31.5411 13.446
      vertex 5 31.6826 13.4081
      vertex 5 31.5411 13.446
    endloop
  endfacet
  facet normal -0 -0.258725 -0.965951
    outer loop
      vertex 5 31.6826 13.4081
      vertex 0 31.5411 13.446
      vertex 0 31.6826 13.4081
    endloop
  endfacet
  facet normal 0 -0.629179 -0.777261
    outer loop
      vertex 0 32.0729 13.2092
      vertex 5 32.1868 13.117
      vertex 5 32.0729 13.2092
    endloop
  endfacet
  facet normal -0 -0.629179 -0.777261
    outer loop
      vertex 5 32.1868 13.117
      vertex 0 32.0729 13.2092
      vertex 0 32.1868 13.117
    endloop
  endfacet
  facet normal 0 -0.707107 -0.707107
    outer loop
      vertex 0 32.2904 13.0134
      vertex 5 32.1868 13.117
      vertex 0 32.1868 13.117
    endloop
  endfacet
  facet normal 0 -0.707107 -0.707107
    outer loop
      vertex 5 32.1868 13.117
      vertex 0 32.2904 13.0134
      vertex 5 32.2904 13.0134
    endloop
  endfacet
  facet normal 0 -0.544581 -0.838709
    outer loop
      vertex 0 31.95 13.289
      vertex 5 32.0729 13.2092
      vertex 5 31.95 13.289
    endloop
  endfacet
  facet normal -0 -0.544581 -0.838709
    outer loop
      vertex 5 32.0729 13.2092
      vertex 0 31.95 13.289
      vertex 0 32.0729 13.2092
    endloop
  endfacet
  facet normal 0 -0.358293 -0.933609
    outer loop
      vertex 0 31.6826 13.4081
      vertex 5 31.8194 13.3556
      vertex 5 31.6826 13.4081
    endloop
  endfacet
  facet normal -0 -0.358293 -0.933609
    outer loop
      vertex 5 31.8194 13.3556
      vertex 0 31.6826 13.4081
      vertex 0 31.8194 13.3556
    endloop
  endfacet
  facet normal 0 -0.156208 -0.987724
    outer loop
      vertex 0 31.3963 13.4689
      vertex 5 31.5411 13.446
      vertex 5 31.3963 13.4689
    endloop
  endfacet
  facet normal -0 -0.156208 -0.987724
    outer loop
      vertex 5 31.5411 13.446
      vertex 0 31.3963 13.4689
      vertex 0 31.5411 13.446
    endloop
  endfacet
  facet normal 0 -0.890852 -0.454294
    outer loop
      vertex 0 32.529 12.646
      vertex 5 32.4624 12.7766
      vertex 0 32.4624 12.7766
    endloop
  endfacet
  facet normal 0 -0.890852 -0.454294
    outer loop
      vertex 5 32.4624 12.7766
      vertex 0 32.529 12.646
      vertex 5 32.529 12.646
    endloop
  endfacet
  facet normal 0 -0.933609 -0.358293
    outer loop
      vertex 0 32.5815 12.5092
      vertex 5 32.529 12.646
      vertex 0 32.529 12.646
    endloop
  endfacet
  facet normal 0 -0.933609 -0.358293
    outer loop
      vertex 5 32.529 12.646
      vertex 0 32.5815 12.5092
      vertex 5 32.5815 12.5092
    endloop
  endfacet
  facet normal 0 -0.838709 -0.544581
    outer loop
      vertex 0 32.4624 12.7766
      vertex 5 32.3826 12.8995
      vertex 0 32.3826 12.8995
    endloop
  endfacet
  facet normal 0 -0.838709 -0.544581
    outer loop
      vertex 5 32.3826 12.8995
      vertex 0 32.4624 12.7766
      vertex 5 32.4624 12.7766
    endloop
  endfacet
  facet normal 0 -0.987724 -0.156208
    outer loop
      vertex 0 32.6423 12.2229
      vertex 5 32.6194 12.3677
      vertex 0 32.6194 12.3677
    endloop
  endfacet
  facet normal 0 -0.987724 -0.156208
    outer loop
      vertex 5 32.6194 12.3677
      vertex 0 32.6423 12.2229
      vertex 5 32.6423 12.2229
    endloop
  endfacet
  facet normal -0 0.0525588 0.998618
    outer loop
      vertex 0 31.25 10.6766
      vertex 5 31.1037 10.6843
      vertex 5 31.25 10.6766
    endloop
  endfacet
  facet normal 0 0.0525588 0.998618
    outer loop
      vertex 5 31.1037 10.6843
      vertex 0 31.25 10.6766
      vertex 0 31.1037 10.6843
    endloop
  endfacet
  facet normal 0 0.998618 0.0525588
    outer loop
      vertex 5 29.8577 11.9303
      vertex 0 29.85 12.0766
      vertex 5 29.85 12.0766
    endloop
  endfacet
  facet normal 0 0.998618 0.0525588
    outer loop
      vertex 0 29.85 12.0766
      vertex 5 29.8577 11.9303
      vertex 0 29.8577 11.9303
    endloop
  endfacet
  facet normal 0 0.965951 0.258725
    outer loop
      vertex 5 29.9185 11.644
      vertex 0 29.8806 11.7855
      vertex 5 29.8806 11.7855
    endloop
  endfacet
  facet normal 0 0.965951 0.258725
    outer loop
      vertex 0 29.8806 11.7855
      vertex 5 29.9185 11.644
      vertex 0 29.9185 11.644
    endloop
  endfacet
  facet normal 0 0.777261 0.629179
    outer loop
      vertex 5 30.2096 11.1398
      vertex 0 30.1174 11.2537
      vertex 5 30.1174 11.2537
    endloop
  endfacet
  facet normal 0 0.777261 0.629179
    outer loop
      vertex 0 30.1174 11.2537
      vertex 5 30.2096 11.1398
      vertex 0 30.2096 11.1398
    endloop
  endfacet
  facet normal 0 0.890852 0.454294
    outer loop
      vertex 5 30.0376 11.3766
      vertex 0 29.971 11.5072
      vertex 5 29.971 11.5072
    endloop
  endfacet
  facet normal 0 0.890852 0.454294
    outer loop
      vertex 0 29.971 11.5072
      vertex 5 30.0376 11.3766
      vertex 0 30.0376 11.3766
    endloop
  endfacet
  facet normal -0 0.629179 0.777261
    outer loop
      vertex 0 30.4271 10.944
      vertex 5 30.3132 11.0362
      vertex 5 30.4271 10.944
    endloop
  endfacet
  facet normal 0 0.629179 0.777261
    outer loop
      vertex 5 30.3132 11.0362
      vertex 0 30.4271 10.944
      vertex 0 30.3132 11.0362
    endloop
  endfacet
  facet normal -0 0.454294 0.890852
    outer loop
      vertex 0 30.6806 10.7976
      vertex 5 30.55 10.8642
      vertex 5 30.6806 10.7976
    endloop
  endfacet
  facet normal 0 0.454294 0.890852
    outer loop
      vertex 5 30.55 10.8642
      vertex 0 30.6806 10.7976
      vertex 0 30.55 10.8642
    endloop
  endfacet
  facet normal -0 0.258725 0.965951
    outer loop
      vertex 0 30.9589 10.7072
      vertex 5 30.8174 10.7451
      vertex 5 30.9589 10.7072
    endloop
  endfacet
  facet normal 0 0.258725 0.965951
    outer loop
      vertex 5 30.8174 10.7451
      vertex 0 30.9589 10.7072
      vertex 0 30.8174 10.7451
    endloop
  endfacet
  facet normal 0 0.965951 -0.258725
    outer loop
      vertex 5 29.8806 12.3677
      vertex 0 29.9185 12.5092
      vertex 5 29.9185 12.5092
    endloop
  endfacet
  facet normal 0 0.965951 -0.258725
    outer loop
      vertex 0 29.9185 12.5092
      vertex 5 29.8806 12.3677
      vertex 0 29.8806 12.3677
    endloop
  endfacet
  facet normal 0 0.777261 -0.629179
    outer loop
      vertex 5 30.1174 12.8995
      vertex 0 30.2096 13.0134
      vertex 5 30.2096 13.0134
    endloop
  endfacet
  facet normal 0 0.777261 -0.629179
    outer loop
      vertex 0 30.2096 13.0134
      vertex 5 30.1174 12.8995
      vertex 0 30.1174 12.8995
    endloop
  endfacet
  facet normal 0 0.707107 -0.707107
    outer loop
      vertex 0 30.2096 13.0134
      vertex 5 30.3132 13.117
      vertex 5 30.2096 13.0134
    endloop
  endfacet
  facet normal 0 0.707107 -0.707107
    outer loop
      vertex 5 30.3132 13.117
      vertex 0 30.2096 13.0134
      vertex 0 30.3132 13.117
    endloop
  endfacet
  facet normal 0 0.838709 -0.544581
    outer loop
      vertex 5 30.0376 12.7766
      vertex 0 30.1174 12.8995
      vertex 5 30.1174 12.8995
    endloop
  endfacet
  facet normal 0 0.838709 -0.544581
    outer loop
      vertex 0 30.1174 12.8995
      vertex 5 30.0376 12.7766
      vertex 0 30.0376 12.7766
    endloop
  endfacet
  facet normal 0 0.933609 -0.358293
    outer loop
      vertex 5 29.9185 12.5092
      vertex 0 29.971 12.646
      vertex 5 29.971 12.646
    endloop
  endfacet
  facet normal 0 0.933609 -0.358293
    outer loop
      vertex 0 29.971 12.646
      vertex 5 29.9185 12.5092
      vertex 0 29.9185 12.5092
    endloop
  endfacet
  facet normal 0 0.987724 -0.156208
    outer loop
      vertex 5 29.8577 12.2229
      vertex 0 29.8806 12.3677
      vertex 5 29.8806 12.3677
    endloop
  endfacet
  facet normal 0 0.987724 -0.156208
    outer loop
      vertex 0 29.8806 12.3677
      vertex 5 29.8577 12.2229
      vertex 0 29.8577 12.2229
    endloop
  endfacet
  facet normal 0 0.544581 -0.838709
    outer loop
      vertex 0 30.4271 13.2092
      vertex 5 30.55 13.289
      vertex 5 30.4271 13.2092
    endloop
  endfacet
  facet normal 0 0.544581 -0.838709
    outer loop
      vertex 5 30.55 13.289
      vertex 0 30.4271 13.2092
      vertex 0 30.55 13.289
    endloop
  endfacet
  facet normal 0 0.258725 -0.965951
    outer loop
      vertex 0 30.8174 13.4081
      vertex 5 30.9589 13.446
      vertex 5 30.8174 13.4081
    endloop
  endfacet
  facet normal 0 0.258725 -0.965951
    outer loop
      vertex 5 30.9589 13.446
      vertex 0 30.8174 13.4081
      vertex 0 30.9589 13.446
    endloop
  endfacet
  facet normal 0 0.0525588 -0.998618
    outer loop
      vertex 0 31.1037 13.4689
      vertex 5 31.25 13.4766
      vertex 5 31.1037 13.4689
    endloop
  endfacet
  facet normal 0 0.0525588 -0.998618
    outer loop
      vertex 5 31.25 13.4766
      vertex 0 31.1037 13.4689
      vertex 0 31.25 13.4766
    endloop
  endfacet
  facet normal 0 -0.258725 0.965951
    outer loop
      vertex 0 31.6826 10.7451
      vertex 5 31.5411 10.7072
      vertex 5 31.6826 10.7451
    endloop
  endfacet
  facet normal 0 -0.258725 0.965951
    outer loop
      vertex 5 31.5411 10.7072
      vertex 0 31.6826 10.7451
      vertex 0 31.5411 10.7072
    endloop
  endfacet
  facet normal 0 -0.454294 0.890852
    outer loop
      vertex 0 31.95 10.8642
      vertex 5 31.8194 10.7976
      vertex 5 31.95 10.8642
    endloop
  endfacet
  facet normal 0 -0.454294 0.890852
    outer loop
      vertex 5 31.8194 10.7976
      vertex 0 31.95 10.8642
      vertex 0 31.8194 10.7976
    endloop
  endfacet
  facet normal 0 -0.629179 0.777261
    outer loop
      vertex 0 32.1868 11.0362
      vertex 5 32.0729 10.944
      vertex 5 32.1868 11.0362
    endloop
  endfacet
  facet normal 0 -0.629179 0.777261
    outer loop
      vertex 5 32.0729 10.944
      vertex 0 32.1868 11.0362
      vertex 0 32.0729 10.944
    endloop
  endfacet
  facet normal 0 -0.987724 0.156208
    outer loop
      vertex 0 32.6194 11.7855
      vertex 5 32.6423 11.9303
      vertex 0 32.6423 11.9303
    endloop
  endfacet
  facet normal 0 -0.987724 0.156208
    outer loop
      vertex 5 32.6423 11.9303
      vertex 0 32.6194 11.7855
      vertex 5 32.6194 11.7855
    endloop
  endfacet
  facet normal 0 -0.933609 0.358293
    outer loop
      vertex 0 32.529 11.5072
      vertex 5 32.5815 11.644
      vertex 0 32.5815 11.644
    endloop
  endfacet
  facet normal 0 -0.933609 0.358293
    outer loop
      vertex 5 32.5815 11.644
      vertex 0 32.529 11.5072
      vertex 5 32.529 11.5072
    endloop
  endfacet
  facet normal 0 -0.838709 0.544581
    outer loop
      vertex 0 32.3826 11.2537
      vertex 5 32.4624 11.3766
      vertex 0 32.4624 11.3766
    endloop
  endfacet
  facet normal 0 -0.838709 0.544581
    outer loop
      vertex 5 32.4624 11.3766
      vertex 0 32.3826 11.2537
      vertex 5 32.3826 11.2537
    endloop
  endfacet
  facet normal 0 0.987724 0.156208
    outer loop
      vertex 5 29.8806 11.7855
      vertex 0 29.8577 11.9303
      vertex 5 29.8577 11.9303
    endloop
  endfacet
  facet normal 0 0.987724 0.156208
    outer loop
      vertex 0 29.8577 11.9303
      vertex 5 29.8806 11.7855
      vertex 0 29.8806 11.7855
    endloop
  endfacet
  facet normal 0 0.933609 0.358293
    outer loop
      vertex 5 29.971 11.5072
      vertex 0 29.9185 11.644
      vertex 5 29.9185 11.644
    endloop
  endfacet
  facet normal 0 0.933609 0.358293
    outer loop
      vertex 0 29.9185 11.644
      vertex 5 29.971 11.5072
      vertex 0 29.971 11.5072
    endloop
  endfacet
  facet normal -0 0.707107 0.707107
    outer loop
      vertex 0 30.3132 11.0362
      vertex 5 30.2096 11.1398
      vertex 5 30.3132 11.0362
    endloop
  endfacet
  facet normal 0 0.707107 0.707107
    outer loop
      vertex 5 30.2096 11.1398
      vertex 0 30.3132 11.0362
      vertex 0 30.2096 11.1398
    endloop
  endfacet
  facet normal 0 0.838709 0.544581
    outer loop
      vertex 5 30.1174 11.2537
      vertex 0 30.0376 11.3766
      vertex 5 30.0376 11.3766
    endloop
  endfacet
  facet normal 0 0.838709 0.544581
    outer loop
      vertex 0 30.0376 11.3766
      vertex 5 30.1174 11.2537
      vertex 0 30.1174 11.2537
    endloop
  endfacet
  facet normal -0 0.544581 0.838709
    outer loop
      vertex 0 30.55 10.8642
      vertex 5 30.4271 10.944
      vertex 5 30.55 10.8642
    endloop
  endfacet
  facet normal 0 0.544581 0.838709
    outer loop
      vertex 5 30.4271 10.944
      vertex 0 30.55 10.8642
      vertex 0 30.4271 10.944
    endloop
  endfacet
  facet normal -0 0.358293 0.933609
    outer loop
      vertex 0 30.8174 10.7451
      vertex 5 30.6806 10.7976
      vertex 5 30.8174 10.7451
    endloop
  endfacet
  facet normal 0 0.358293 0.933609
    outer loop
      vertex 5 30.6806 10.7976
      vertex 0 30.8174 10.7451
      vertex 0 30.6806 10.7976
    endloop
  endfacet
  facet normal -0 0.156208 0.987724
    outer loop
      vertex 0 31.1037 10.6843
      vertex 5 30.9589 10.7072
      vertex 5 31.1037 10.6843
    endloop
  endfacet
  facet normal 0 0.156208 0.987724
    outer loop
      vertex 5 30.9589 10.7072
      vertex 0 31.1037 10.6843
      vertex 0 30.9589 10.7072
    endloop
  endfacet
  facet normal 0 -0.777261 0.629179
    outer loop
      vertex 0 16.7904 11.1398
      vertex 5 16.8826 11.2537
      vertex 0 16.8826 11.2537
    endloop
  endfacet
  facet normal 0 -0.777261 0.629179
    outer loop
      vertex 5 16.8826 11.2537
      vertex 0 16.7904 11.1398
      vertex 5 16.7904 11.1398
    endloop
  endfacet
  facet normal 0 -0.965951 -0.258725
    outer loop
      vertex 0 17.1194 12.3677
      vertex 5 17.0815 12.5092
      vertex 0 17.0815 12.5092
    endloop
  endfacet
  facet normal 0 -0.965951 -0.258725
    outer loop
      vertex 5 17.0815 12.5092
      vertex 0 17.1194 12.3677
      vertex 5 17.1194 12.3677
    endloop
  endfacet
  facet normal 0 -0.454294 -0.890852
    outer loop
      vertex 0 16.3194 13.3556
      vertex 5 16.45 13.289
      vertex 5 16.3194 13.3556
    endloop
  endfacet
  facet normal -0 -0.454294 -0.890852
    outer loop
      vertex 5 16.45 13.289
      vertex 0 16.3194 13.3556
      vertex 0 16.45 13.289
    endloop
  endfacet
  facet normal -0 0.0525588 0.998618
    outer loop
      vertex 0 15.75 10.6766
      vertex 5 15.6037 10.6843
      vertex 5 15.75 10.6766
    endloop
  endfacet
  facet normal 0 0.0525588 0.998618
    outer loop
      vertex 5 15.6037 10.6843
      vertex 0 15.75 10.6766
      vertex 0 15.6037 10.6843
    endloop
  endfacet
  facet normal 0 0.358293 -0.933609
    outer loop
      vertex 0 15.1806 13.3556
      vertex 5 15.3174 13.4081
      vertex 5 15.1806 13.3556
    endloop
  endfacet
  facet normal 0 0.358293 -0.933609
    outer loop
      vertex 5 15.3174 13.4081
      vertex 0 15.1806 13.3556
      vertex 0 15.3174 13.4081
    endloop
  endfacet
  facet normal 0 0.890852 -0.454294
    outer loop
      vertex 5 14.471 12.646
      vertex 0 14.5376 12.7766
      vertex 5 14.5376 12.7766
    endloop
  endfacet
  facet normal 0 0.890852 -0.454294
    outer loop
      vertex 0 14.5376 12.7766
      vertex 5 14.471 12.646
      vertex 0 14.471 12.646
    endloop
  endfacet
  facet normal 0 -0.544581 0.838709
    outer loop
      vertex 0 16.5729 10.944
      vertex 5 16.45 10.8642
      vertex 5 16.5729 10.944
    endloop
  endfacet
  facet normal 0 -0.544581 0.838709
    outer loop
      vertex 5 16.45 10.8642
      vertex 0 16.5729 10.944
      vertex 0 16.45 10.8642
    endloop
  endfacet
  facet normal 0 -0.998618 0.0525588
    outer loop
      vertex 0 17.1423 11.9303
      vertex 5 17.15 12.0766
      vertex 0 17.15 12.0766
    endloop
  endfacet
  facet normal 0 -0.998618 0.0525588
    outer loop
      vertex 5 17.15 12.0766
      vertex 0 17.1423 11.9303
      vertex 5 17.1423 11.9303
    endloop
  endfacet
  facet normal 0 -0.156208 -0.987724
    outer loop
      vertex 0 15.8963 13.4689
      vertex 5 16.0411 13.446
      vertex 5 15.8963 13.4689
    endloop
  endfacet
  facet normal -0 -0.156208 -0.987724
    outer loop
      vertex 5 16.0411 13.446
      vertex 0 15.8963 13.4689
      vertex 0 16.0411 13.446
    endloop
  endfacet
  facet normal 0 -0.707107 -0.707107
    outer loop
      vertex 0 16.7904 13.0134
      vertex 5 16.6868 13.117
      vertex 0 16.6868 13.117
    endloop
  endfacet
  facet normal 0 -0.707107 -0.707107
    outer loop
      vertex 5 16.6868 13.117
      vertex 0 16.7904 13.0134
      vertex 5 16.7904 13.0134
    endloop
  endfacet
  facet normal 0 -0.998618 -0.0525588
    outer loop
      vertex 0 17.15 12.0766
      vertex 5 17.1423 12.2229
      vertex 0 17.1423 12.2229
    endloop
  endfacet
  facet normal 0 -0.998618 -0.0525588
    outer loop
      vertex 5 17.1423 12.2229
      vertex 0 17.15 12.0766
      vertex 5 17.15 12.0766
    endloop
  endfacet
  facet normal -0 0.358293 0.933609
    outer loop
      vertex 0 15.3174 10.7451
      vertex 5 15.1806 10.7976
      vertex 5 15.3174 10.7451
    endloop
  endfacet
  facet normal 0 0.358293 0.933609
    outer loop
      vertex 5 15.1806 10.7976
      vertex 0 15.3174 10.7451
      vertex 0 15.1806 10.7976
    endloop
  endfacet
  facet normal 0 0.987724 -0.156208
    outer loop
      vertex 5 14.3577 12.2229
      vertex 0 14.3806 12.3677
      vertex 5 14.3806 12.3677
    endloop
  endfacet
  facet normal 0 0.987724 -0.156208
    outer loop
      vertex 0 14.3806 12.3677
      vertex 5 14.3577 12.2229
      vertex 0 14.3577 12.2229
    endloop
  endfacet
  facet normal 0 0.707107 -0.707107
    outer loop
      vertex 5 14.7096 13.0134
      vertex 0 14.8132 13.117
      vertex 5 14.8132 13.117
    endloop
  endfacet
  facet normal 0 0.707107 -0.707107
    outer loop
      vertex 0 14.8132 13.117
      vertex 5 14.7096 13.0134
      vertex 0 14.7096 13.0134
    endloop
  endfacet
  facet normal 0 0.156208 -0.987724
    outer loop
      vertex 0 15.4589 13.446
      vertex 5 15.6037 13.4689
      vertex 5 15.4589 13.446
    endloop
  endfacet
  facet normal 0 0.156208 -0.987724
    outer loop
      vertex 5 15.6037 13.4689
      vertex 0 15.4589 13.446
      vertex 0 15.6037 13.4689
    endloop
  endfacet
  facet normal 0 0.454294 -0.890852
    outer loop
      vertex 0 15.05 13.289
      vertex 5 15.1806 13.3556
      vertex 5 15.05 13.289
    endloop
  endfacet
  facet normal 0 0.454294 -0.890852
    outer loop
      vertex 5 15.1806 13.3556
      vertex 0 15.05 13.289
      vertex 0 15.1806 13.3556
    endloop
  endfacet
  facet normal 0 -0.156208 0.987724
    outer loop
      vertex 0 16.0411 10.7072
      vertex 5 15.8963 10.6843
      vertex 5 16.0411 10.7072
    endloop
  endfacet
  facet normal 0 -0.156208 0.987724
    outer loop
      vertex 5 15.8963 10.6843
      vertex 0 16.0411 10.7072
      vertex 0 15.8963 10.6843
    endloop
  endfacet
  facet normal 0 -0.358293 0.933609
    outer loop
      vertex 0 16.3194 10.7976
      vertex 5 16.1826 10.7451
      vertex 5 16.3194 10.7976
    endloop
  endfacet
  facet normal 0 -0.358293 0.933609
    outer loop
      vertex 5 16.1826 10.7451
      vertex 0 16.3194 10.7976
      vertex 0 16.1826 10.7451
    endloop
  endfacet
  facet normal 0 -0.707107 0.707107
    outer loop
      vertex 0 16.6868 11.0362
      vertex 5 16.7904 11.1398
      vertex 0 16.7904 11.1398
    endloop
  endfacet
  facet normal 0 -0.707107 0.707107
    outer loop
      vertex 5 16.7904 11.1398
      vertex 0 16.6868 11.0362
      vertex 5 16.6868 11.0362
    endloop
  endfacet
  facet normal 0 -0.890852 0.454294
    outer loop
      vertex 0 16.9624 11.3766
      vertex 5 17.029 11.5072
      vertex 0 17.029 11.5072
    endloop
  endfacet
  facet normal 0 -0.890852 0.454294
    outer loop
      vertex 5 17.029 11.5072
      vertex 0 16.9624 11.3766
      vertex 5 16.9624 11.3766
    endloop
  endfacet
  facet normal 0 -0.965951 0.258725
    outer loop
      vertex 0 17.0815 11.644
      vertex 5 17.1194 11.7855
      vertex 0 17.1194 11.7855
    endloop
  endfacet
  facet normal 0 -0.965951 0.258725
    outer loop
      vertex 5 17.1194 11.7855
      vertex 0 17.0815 11.644
      vertex 5 17.0815 11.644
    endloop
  endfacet
  facet normal 0 -0.0525588 -0.998618
    outer loop
      vertex 0 15.75 13.4766
      vertex 5 15.8963 13.4689
      vertex 5 15.75 13.4766
    endloop
  endfacet
  facet normal -0 -0.0525588 -0.998618
    outer loop
      vertex 5 15.8963 13.4689
      vertex 0 15.75 13.4766
      vertex 0 15.8963 13.4689
    endloop
  endfacet
  facet normal 0 -0.358293 -0.933609
    outer loop
      vertex 0 16.1826 13.4081
      vertex 5 16.3194 13.3556
      vertex 5 16.1826 13.4081
    endloop
  endfacet
  facet normal -0 -0.358293 -0.933609
    outer loop
      vertex 5 16.3194 13.3556
      vertex 0 16.1826 13.4081
      vertex 0 16.3194 13.3556
    endloop
  endfacet
  facet normal 0 -0.258725 -0.965951
    outer loop
      vertex 0 16.0411 13.446
      vertex 5 16.1826 13.4081
      vertex 5 16.0411 13.446
    endloop
  endfacet
  facet normal -0 -0.258725 -0.965951
    outer loop
      vertex 5 16.1826 13.4081
      vertex 0 16.0411 13.446
      vertex 0 16.1826 13.4081
    endloop
  endfacet
  facet normal 0 -0.544581 -0.838709
    outer loop
      vertex 0 16.45 13.289
      vertex 5 16.5729 13.2092
      vertex 5 16.45 13.289
    endloop
  endfacet
  facet normal -0 -0.544581 -0.838709
    outer loop
      vertex 5 16.5729 13.2092
      vertex 0 16.45 13.289
      vertex 0 16.5729 13.2092
    endloop
  endfacet
  facet normal 0 -0.629179 -0.777261
    outer loop
      vertex 0 16.5729 13.2092
      vertex 5 16.6868 13.117
      vertex 5 16.5729 13.2092
    endloop
  endfacet
  facet normal -0 -0.629179 -0.777261
    outer loop
      vertex 5 16.6868 13.117
      vertex 0 16.5729 13.2092
      vertex 0 16.6868 13.117
    endloop
  endfacet
  facet normal 0 -0.987724 -0.156208
    outer loop
      vertex 0 17.1423 12.2229
      vertex 5 17.1194 12.3677
      vertex 0 17.1194 12.3677
    endloop
  endfacet
  facet normal 0 -0.987724 -0.156208
    outer loop
      vertex 5 17.1194 12.3677
      vertex 0 17.1423 12.2229
      vertex 5 17.1423 12.2229
    endloop
  endfacet
  facet normal 0 -0.890852 -0.454294
    outer loop
      vertex 0 17.029 12.646
      vertex 5 16.9624 12.7766
      vertex 0 16.9624 12.7766
    endloop
  endfacet
  facet normal 0 -0.890852 -0.454294
    outer loop
      vertex 5 16.9624 12.7766
      vertex 0 17.029 12.646
      vertex 5 17.029 12.646
    endloop
  endfacet
  facet normal 0 -0.838709 -0.544581
    outer loop
      vertex 0 16.9624 12.7766
      vertex 5 16.8826 12.8995
      vertex 0 16.8826 12.8995
    endloop
  endfacet
  facet normal 0 -0.838709 -0.544581
    outer loop
      vertex 5 16.8826 12.8995
      vertex 0 16.9624 12.7766
      vertex 5 16.9624 12.7766
    endloop
  endfacet
  facet normal 0 -0.933609 -0.358293
    outer loop
      vertex 0 17.0815 12.5092
      vertex 5 17.029 12.646
      vertex 0 17.029 12.646
    endloop
  endfacet
  facet normal 0 -0.933609 -0.358293
    outer loop
      vertex 5 17.029 12.646
      vertex 0 17.0815 12.5092
      vertex 5 17.0815 12.5092
    endloop
  endfacet
  facet normal 0 -0.777261 -0.629179
    outer loop
      vertex 0 16.8826 12.8995
      vertex 5 16.7904 13.0134
      vertex 0 16.7904 13.0134
    endloop
  endfacet
  facet normal 0 -0.777261 -0.629179
    outer loop
      vertex 5 16.7904 13.0134
      vertex 0 16.8826 12.8995
      vertex 5 16.8826 12.8995
    endloop
  endfacet
  facet normal 0 -0.0525588 0.998618
    outer loop
      vertex 0 15.8963 10.6843
      vertex 5 15.75 10.6766
      vertex 5 15.8963 10.6843
    endloop
  endfacet
  facet normal 0 -0.0525588 0.998618
    outer loop
      vertex 5 15.75 10.6766
      vertex 0 15.8963 10.6843
      vertex 0 15.75 10.6766
    endloop
  endfacet
  facet normal 0 0.998618 0.0525588
    outer loop
      vertex 5 14.3577 11.9303
      vertex 0 14.35 12.0766
      vertex 5 14.35 12.0766
    endloop
  endfacet
  facet normal 0 0.998618 0.0525588
    outer loop
      vertex 0 14.35 12.0766
      vertex 5 14.3577 11.9303
      vertex 0 14.3577 11.9303
    endloop
  endfacet
  facet normal -0 0.258725 0.965951
    outer loop
      vertex 0 15.4589 10.7072
      vertex 5 15.3174 10.7451
      vertex 5 15.4589 10.7072
    endloop
  endfacet
  facet normal 0 0.258725 0.965951
    outer loop
      vertex 5 15.3174 10.7451
      vertex 0 15.4589 10.7072
      vertex 0 15.3174 10.7451
    endloop
  endfacet
  facet normal -0 0.629179 0.777261
    outer loop
      vertex 0 14.9271 10.944
      vertex 5 14.8132 11.0362
      vertex 5 14.9271 10.944
    endloop
  endfacet
  facet normal 0 0.629179 0.777261
    outer loop
      vertex 5 14.8132 11.0362
      vertex 0 14.9271 10.944
      vertex 0 14.8132 11.0362
    endloop
  endfacet
  facet normal -0 0.454294 0.890852
    outer loop
      vertex 0 15.1806 10.7976
      vertex 5 15.05 10.8642
      vertex 5 15.1806 10.7976
    endloop
  endfacet
  facet normal 0 0.454294 0.890852
    outer loop
      vertex 5 15.05 10.8642
      vertex 0 15.1806 10.7976
      vertex 0 15.05 10.8642
    endloop
  endfacet
  facet normal 0 0.965951 0.258725
    outer loop
      vertex 5 14.4185 11.644
      vertex 0 14.3806 11.7855
      vertex 5 14.3806 11.7855
    endloop
  endfacet
  facet normal 0 0.965951 0.258725
    outer loop
      vertex 0 14.3806 11.7855
      vertex 5 14.4185 11.644
      vertex 0 14.4185 11.644
    endloop
  endfacet
  facet normal 0 0.707107 0.707107
    outer loop
      vertex 5 14.8132 11.0362
      vertex 0 14.7096 11.1398
      vertex 5 14.7096 11.1398
    endloop
  endfacet
  facet normal 0 0.707107 0.707107
    outer loop
      vertex 0 14.7096 11.1398
      vertex 5 14.8132 11.0362
      vertex 0 14.8132 11.0362
    endloop
  endfacet
  facet normal 0 0.777261 0.629179
    outer loop
      vertex 5 14.7096 11.1398
      vertex 0 14.6174 11.2537
      vertex 5 14.6174 11.2537
    endloop
  endfacet
  facet normal 0 0.777261 0.629179
    outer loop
      vertex 0 14.6174 11.2537
      vertex 5 14.7096 11.1398
      vertex 0 14.7096 11.1398
    endloop
  endfacet
  facet normal 0 0.890852 0.454294
    outer loop
      vertex 5 14.5376 11.3766
      vertex 0 14.471 11.5072
      vertex 5 14.471 11.5072
    endloop
  endfacet
  facet normal 0 0.890852 0.454294
    outer loop
      vertex 0 14.471 11.5072
      vertex 5 14.5376 11.3766
      vertex 0 14.5376 11.3766
    endloop
  endfacet
  facet normal 0 0.998618 -0.0525588
    outer loop
      vertex 5 14.35 12.0766
      vertex 0 14.3577 12.2229
      vertex 5 14.3577 12.2229
    endloop
  endfacet
  facet normal 0 0.998618 -0.0525588
    outer loop
      vertex 0 14.3577 12.2229
      vertex 5 14.35 12.0766
      vertex 0 14.35 12.0766
    endloop
  endfacet
  facet normal 0 0.933609 -0.358293
    outer loop
      vertex 5 14.4185 12.5092
      vertex 0 14.471 12.646
      vertex 5 14.471 12.646
    endloop
  endfacet
  facet normal 0 0.933609 -0.358293
    outer loop
      vertex 0 14.471 12.646
      vertex 5 14.4185 12.5092
      vertex 0 14.4185 12.5092
    endloop
  endfacet
  facet normal 0 0.965951 -0.258725
    outer loop
      vertex 5 14.3806 12.3677
      vertex 0 14.4185 12.5092
      vertex 5 14.4185 12.5092
    endloop
  endfacet
  facet normal 0 0.965951 -0.258725
    outer loop
      vertex 0 14.4185 12.5092
      vertex 5 14.3806 12.3677
      vertex 0 14.3806 12.3677
    endloop
  endfacet
  facet normal 0 0.838709 -0.544581
    outer loop
      vertex 5 14.5376 12.7766
      vertex 0 14.6174 12.8995
      vertex 5 14.6174 12.8995
    endloop
  endfacet
  facet normal 0 0.838709 -0.544581
    outer loop
      vertex 0 14.6174 12.8995
      vertex 5 14.5376 12.7766
      vertex 0 14.5376 12.7766
    endloop
  endfacet
  facet normal 0 0.777261 -0.629179
    outer loop
      vertex 5 14.6174 12.8995
      vertex 0 14.7096 13.0134
      vertex 5 14.7096 13.0134
    endloop
  endfacet
  facet normal 0 0.777261 -0.629179
    outer loop
      vertex 0 14.7096 13.0134
      vertex 5 14.6174 12.8995
      vertex 0 14.6174 12.8995
    endloop
  endfacet
  facet normal 0 0.258725 -0.965951
    outer loop
      vertex 0 15.3174 13.4081
      vertex 5 15.4589 13.446
      vertex 5 15.3174 13.4081
    endloop
  endfacet
  facet normal 0 0.258725 -0.965951
    outer loop
      vertex 5 15.4589 13.446
      vertex 0 15.3174 13.4081
      vertex 0 15.4589 13.446
    endloop
  endfacet
  facet normal 0 0.0525588 -0.998618
    outer loop
      vertex 0 15.6037 13.4689
      vertex 5 15.75 13.4766
      vertex 5 15.6037 13.4689
    endloop
  endfacet
  facet normal 0 0.0525588 -0.998618
    outer loop
      vertex 5 15.75 13.4766
      vertex 0 15.6037 13.4689
      vertex 0 15.75 13.4766
    endloop
  endfacet
  facet normal 0 0.544581 -0.838709
    outer loop
      vertex 0 14.9271 13.2092
      vertex 5 15.05 13.289
      vertex 5 14.9271 13.2092
    endloop
  endfacet
  facet normal 0 0.544581 -0.838709
    outer loop
      vertex 5 15.05 13.289
      vertex 0 14.9271 13.2092
      vertex 0 15.05 13.289
    endloop
  endfacet
  facet normal 0 0.629179 -0.777261
    outer loop
      vertex 0 14.8132 13.117
      vertex 5 14.9271 13.2092
      vertex 5 14.8132 13.117
    endloop
  endfacet
  facet normal 0 0.629179 -0.777261
    outer loop
      vertex 5 14.9271 13.2092
      vertex 0 14.8132 13.117
      vertex 0 14.9271 13.2092
    endloop
  endfacet
  facet normal 0 -0.258725 0.965951
    outer loop
      vertex 0 16.1826 10.7451
      vertex 5 16.0411 10.7072
      vertex 5 16.1826 10.7451
    endloop
  endfacet
  facet normal 0 -0.258725 0.965951
    outer loop
      vertex 5 16.0411 10.7072
      vertex 0 16.1826 10.7451
      vertex 0 16.0411 10.7072
    endloop
  endfacet
  facet normal 0 -0.454294 0.890852
    outer loop
      vertex 0 16.45 10.8642
      vertex 5 16.3194 10.7976
      vertex 5 16.45 10.8642
    endloop
  endfacet
  facet normal 0 -0.454294 0.890852
    outer loop
      vertex 5 16.3194 10.7976
      vertex 0 16.45 10.8642
      vertex 0 16.3194 10.7976
    endloop
  endfacet
  facet normal 0 -0.629179 0.777261
    outer loop
      vertex 0 16.6868 11.0362
      vertex 5 16.5729 10.944
      vertex 5 16.6868 11.0362
    endloop
  endfacet
  facet normal 0 -0.629179 0.777261
    outer loop
      vertex 5 16.5729 10.944
      vertex 0 16.6868 11.0362
      vertex 0 16.5729 10.944
    endloop
  endfacet
  facet normal 0 -0.838709 0.544581
    outer loop
      vertex 0 16.8826 11.2537
      vertex 5 16.9624 11.3766
      vertex 0 16.9624 11.3766
    endloop
  endfacet
  facet normal 0 -0.838709 0.544581
    outer loop
      vertex 5 16.9624 11.3766
      vertex 0 16.8826 11.2537
      vertex 5 16.8826 11.2537
    endloop
  endfacet
  facet normal 0 -0.933609 0.358293
    outer loop
      vertex 0 17.029 11.5072
      vertex 5 17.0815 11.644
      vertex 0 17.0815 11.644
    endloop
  endfacet
  facet normal 0 -0.933609 0.358293
    outer loop
      vertex 5 17.0815 11.644
      vertex 0 17.029 11.5072
      vertex 5 17.029 11.5072
    endloop
  endfacet
  facet normal 0 -0.987724 0.156208
    outer loop
      vertex 0 17.1194 11.7855
      vertex 5 17.1423 11.9303
      vertex 0 17.1423 11.9303
    endloop
  endfacet
  facet normal 0 -0.987724 0.156208
    outer loop
      vertex 5 17.1423 11.9303
      vertex 0 17.1194 11.7855
      vertex 5 17.1194 11.7855
    endloop
  endfacet
  facet normal -0 0.156208 0.987724
    outer loop
      vertex 0 15.6037 10.6843
      vertex 5 15.4589 10.7072
      vertex 5 15.6037 10.6843
    endloop
  endfacet
  facet normal 0 0.156208 0.987724
    outer loop
      vertex 5 15.4589 10.7072
      vertex 0 15.6037 10.6843
      vertex 0 15.4589 10.7072
    endloop
  endfacet
  facet normal 0 0.987724 0.156208
    outer loop
      vertex 5 14.3806 11.7855
      vertex 0 14.3577 11.9303
      vertex 5 14.3577 11.9303
    endloop
  endfacet
  facet normal 0 0.987724 0.156208
    outer loop
      vertex 0 14.3577 11.9303
      vertex 5 14.3806 11.7855
      vertex 0 14.3806 11.7855
    endloop
  endfacet
  facet normal 0 0.933609 0.358293
    outer loop
      vertex 5 14.471 11.5072
      vertex 0 14.4185 11.644
      vertex 5 14.4185 11.644
    endloop
  endfacet
  facet normal 0 0.933609 0.358293
    outer loop
      vertex 0 14.4185 11.644
      vertex 5 14.471 11.5072
      vertex 0 14.471 11.5072
    endloop
  endfacet
  facet normal 0 0.838709 0.544581
    outer loop
      vertex 5 14.6174 11.2537
      vertex 0 14.5376 11.3766
      vertex 5 14.5376 11.3766
    endloop
  endfacet
  facet normal 0 0.838709 0.544581
    outer loop
      vertex 0 14.5376 11.3766
      vertex 5 14.6174 11.2537
      vertex 0 14.6174 11.2537
    endloop
  endfacet
  facet normal -0 0.544581 0.838709
    outer loop
      vertex 0 15.05 10.8642
      vertex 5 14.9271 10.944
      vertex 5 15.05 10.8642
    endloop
  endfacet
  facet normal 0 0.544581 0.838709
    outer loop
      vertex 5 14.9271 10.944
      vertex 0 15.05 10.8642
      vertex 0 14.9271 10.944
    endloop
  endfacet
  facet normal -1 0 0
    outer loop
      vertex 0 47 1
      vertex 0 32.65 12.0766
      vertex 0 47 23.5
    endloop
  endfacet
  facet normal -1 0 0
    outer loop
      vertex 0 47 1
      vertex 0 32.6423 11.9303
      vertex 0 32.65 12.0766
    endloop
  endfacet
  facet normal -1 0 0
    outer loop
      vertex 0 47 1
      vertex 0 32.6194 11.7855
      vertex 0 32.6423 11.9303
    endloop
  endfacet
  facet normal -1 0 0
    outer loop
      vertex 0 47 1
      vertex 0 32.5815 11.644
      vertex 0 32.6194 11.7855
    endloop
  endfacet
  facet normal -1 0 0
    outer loop
      vertex 0 47 1
      vertex 0 32.529 11.5072
      vertex 0 32.5815 11.644
    endloop
  endfacet
  facet normal -1 0 0
    outer loop
      vertex 0 47 1
      vertex 0 32.4624 11.3766
      vertex 0 32.529 11.5072
    endloop
  endfacet
  facet normal -1 0 0
    outer loop
      vertex 0 47 1
      vertex 0 32.3826 11.2537
      vertex 0 32.4624 11.3766
    endloop
  endfacet
  facet normal -1 0 0
    outer loop
      vertex 0 47 1
      vertex 0 32.2904 11.1398
      vertex 0 32.3826 11.2537
    endloop
  endfacet
  facet normal -1 0 0
    outer loop
      vertex 0 47 1
      vertex 0 32.1868 11.0362
      vertex 0 32.2904 11.1398
    endloop
  endfacet
  facet normal -1 0 0
    outer loop
      vertex 0 47 1
      vertex 0 32.0729 10.944
      vertex 0 32.1868 11.0362
    endloop
  endfacet
  facet normal -1 0 0
    outer loop
      vertex 0 47 1
      vertex 0 31.95 10.8642
      vertex 0 32.0729 10.944
    endloop
  endfacet
  facet normal -1 0 0
    outer loop
      vertex 0 47 1
      vertex 0 31.8194 10.7976
      vertex 0 31.95 10.8642
    endloop
  endfacet
  facet normal -1 0 0
    outer loop
      vertex 0 47 1
      vertex 0 31.6826 10.7451
      vertex 0 31.8194 10.7976
    endloop
  endfacet
  facet normal -1 0 0
    outer loop
      vertex 0 47 1
      vertex 0 31.5411 10.7072
      vertex 0 31.6826 10.7451
    endloop
  endfacet
  facet normal -1 0 0
    outer loop
      vertex 0 47 1
      vertex 0 31.3963 10.6843
      vertex 0 31.5411 10.7072
    endloop
  endfacet
  facet normal -1 0 0
    outer loop
      vertex 0 47 1
      vertex 0 31.25 10.6766
      vertex 0 31.3963 10.6843
    endloop
  endfacet
  facet normal -1 0 0
    outer loop
      vertex 0 47 1
      vertex 0 31.1037 10.6843
      vertex 0 31.25 10.6766
    endloop
  endfacet
  facet normal -1 0 0
    outer loop
      vertex 0 47 1
      vertex 0 30.9589 10.7072
      vertex 0 31.1037 10.6843
    endloop
  endfacet
  facet normal -1 0 0
    outer loop
      vertex 0 16.0411 10.7072
      vertex 0 30.9589 10.7072
      vertex 0 47 1
    endloop
  endfacet
  facet normal -1 0 0
    outer loop
      vertex 0 30.9589 10.7072
      vertex 0 16.0411 10.7072
      vertex 0 30.8174 10.7451
    endloop
  endfacet
  facet normal -1 0 -0
    outer loop
      vertex 0 16.1826 10.7451
      vertex 0 30.8174 10.7451
      vertex 0 16.0411 10.7072
    endloop
  endfacet
  facet normal -1 0 0
    outer loop
      vertex 0 29.8577 11.9303
      vertex 0 17.15 12.0766
      vertex 0 29.85 12.0766
    endloop
  endfacet
  facet normal -1 0 0
    outer loop
      vertex 0 17.1423 11.9303
      vertex 0 29.8577 11.9303
      vertex 0 29.8806 11.7855
    endloop
  endfacet
  facet normal -1 0 0
    outer loop
      vertex 0 17.1194 11.7855
      vertex 0 29.8806 11.7855
      vertex 0 29.9185 11.644
    endloop
  endfacet
  facet normal -1 0 0
    outer loop
      vertex 0 17.0815 11.644
      vertex 0 29.9185 11.644
      vertex 0 29.971 11.5072
    endloop
  endfacet
  facet normal -1 0 0
    outer loop
      vertex 0 17.029 11.5072
      vertex 0 29.971 11.5072
      vertex 0 30.0376 11.3766
    endloop
  endfacet
  facet normal -1 0 0
    outer loop
      vertex 0 16.9624 11.3766
      vertex 0 30.0376 11.3766
      vertex 0 30.1174 11.2537
    endloop
  endfacet
  facet normal -1 0 0
    outer loop
      vertex 0 16.8826 11.2537
      vertex 0 30.1174 11.2537
      vertex 0 30.2096 11.1398
    endloop
  endfacet
  facet normal -1 0 0
    outer loop
      vertex 0 16.7904 11.1398
      vertex 0 30.2096 11.1398
      vertex 0 30.3132 11.0362
    endloop
  endfacet
  facet normal -1 0 0
    outer loop
      vertex 0 16.6868 11.0362
      vertex 0 30.3132 11.0362
      vertex 0 30.4271 10.944
    endloop
  endfacet
  facet normal -1 0 0
    outer loop
      vertex 0 16.5729 10.944
      vertex 0 30.4271 10.944
      vertex 0 30.55 10.8642
    endloop
  endfacet
  facet normal -1 0 0
    outer loop
      vertex 0 30.8174 10.7451
      vertex 0 16.1826 10.7451
      vertex 0 30.6806 10.7976
    endloop
  endfacet
  facet normal -1 0 0
    outer loop
      vertex 0 29.8577 11.9303
      vertex 0 17.1423 11.9303
      vertex 0 17.15 12.0766
    endloop
  endfacet
  facet normal -1 0 0
    outer loop
      vertex 0 29.8806 11.7855
      vertex 0 17.1194 11.7855
      vertex 0 17.1423 11.9303
    endloop
  endfacet
  facet normal -1 0 0
    outer loop
      vertex 0 29.9185 11.644
      vertex 0 17.0815 11.644
      vertex 0 17.1194 11.7855
    endloop
  endfacet
  facet normal -1 0 0
    outer loop
      vertex 0 29.971 11.5072
      vertex 0 17.029 11.5072
      vertex 0 17.0815 11.644
    endloop
  endfacet
  facet normal -1 0 0
    outer loop
      vertex 0 30.0376 11.3766
      vertex 0 16.9624 11.3766
      vertex 0 17.029 11.5072
    endloop
  endfacet
  facet normal -1 0 0
    outer loop
      vertex 0 30.1174 11.2537
      vertex 0 16.8826 11.2537
      vertex 0 16.9624 11.3766
    endloop
  endfacet
  facet normal -1 0 0
    outer loop
      vertex 0 30.2096 11.1398
      vertex 0 16.7904 11.1398
      vertex 0 16.8826 11.2537
    endloop
  endfacet
  facet normal -1 0 0
    outer loop
      vertex 0 30.3132 11.0362
      vertex 0 16.6868 11.0362
      vertex 0 16.7904 11.1398
    endloop
  endfacet
  facet normal -1 0 0
    outer loop
      vertex 0 30.4271 10.944
      vertex 0 16.5729 10.944
      vertex 0 16.6868 11.0362
    endloop
  endfacet
  facet normal -1 0 0
    outer loop
      vertex 0 30.55 10.8642
      vertex 0 16.45 10.8642
      vertex 0 16.5729 10.944
    endloop
  endfacet
  facet normal -1 -0 0
    outer loop
      vertex 0 30.55 10.8642
      vertex 0 16.3194 10.7976
      vertex 0 16.45 10.8642
    endloop
  endfacet
  facet normal -1 0 0
    outer loop
      vertex 0 30.6806 10.7976
      vertex 0 16.3194 10.7976
      vertex 0 30.55 10.8642
    endloop
  endfacet
  facet normal -1 0 -0
    outer loop
      vertex 0 16.3194 10.7976
      vertex 0 30.6806 10.7976
      vertex 0 16.1826 10.7451
    endloop
  endfacet
  facet normal -1 0 0
    outer loop
      vertex 0 0 1
      vertex 0 16.0411 10.7072
      vertex 0 47 1
    endloop
  endfacet
  facet normal -1 0 0
    outer loop
      vertex 0 16.0411 10.7072
      vertex 0 0 1
      vertex 0 15.8963 10.6843
    endloop
  endfacet
  facet normal -1 0 0
    outer loop
      vertex 0 15.8963 10.6843
      vertex 0 0 1
      vertex 0 15.75 10.6766
    endloop
  endfacet
  facet normal -1 -0 0
    outer loop
      vertex 0 15.75 10.6766
      vertex 0 0 1
      vertex 0 15.6037 10.6843
    endloop
  endfacet
  facet normal -1 -0 0
    outer loop
      vertex 0 15.6037 10.6843
      vertex 0 0 1
      vertex 0 15.4589 10.7072
    endloop
  endfacet
  facet normal -1 -0 0
    outer loop
      vertex 0 14.3577 11.9303
      vertex 0 0 1
      vertex 0 14.35 12.0766
    endloop
  endfacet
  facet normal -1 -0 0
    outer loop
      vertex 0 14.3806 11.7855
      vertex 0 0 1
      vertex 0 14.3577 11.9303
    endloop
  endfacet
  facet normal -1 -0 0
    outer loop
      vertex 0 14.4185 11.644
      vertex 0 0 1
      vertex 0 14.3806 11.7855
    endloop
  endfacet
  facet normal -1 -0 0
    outer loop
      vertex 0 14.471 11.5072
      vertex 0 0 1
      vertex 0 14.4185 11.644
    endloop
  endfacet
  facet normal -1 -0 0
    outer loop
      vertex 0 14.5376 11.3766
      vertex 0 0 1
      vertex 0 14.471 11.5072
    endloop
  endfacet
  facet normal -1 -0 0
    outer loop
      vertex 0 14.6174 11.2537
      vertex 0 0 1
      vertex 0 14.5376 11.3766
    endloop
  endfacet
  facet normal -1 -0 0
    outer loop
      vertex 0 14.7096 11.1398
      vertex 0 0 1
      vertex 0 14.6174 11.2537
    endloop
  endfacet
  facet normal -1 -0 0
    outer loop
      vertex 0 14.8132 11.0362
      vertex 0 0 1
      vertex 0 14.7096 11.1398
    endloop
  endfacet
  facet normal -1 -0 0
    outer loop
      vertex 0 14.9271 10.944
      vertex 0 0 1
      vertex 0 14.8132 11.0362
    endloop
  endfacet
  facet normal -1 -0 0
    outer loop
      vertex 0 15.05 10.8642
      vertex 0 0 1
      vertex 0 14.9271 10.944
    endloop
  endfacet
  facet normal -1 -0 0
    outer loop
      vertex 0 15.1806 10.7976
      vertex 0 0 1
      vertex 0 15.05 10.8642
    endloop
  endfacet
  facet normal -1 -0 0
    outer loop
      vertex 0 15.3174 10.7451
      vertex 0 0 1
      vertex 0 15.1806 10.7976
    endloop
  endfacet
  facet normal -1 -0 0
    outer loop
      vertex 0 15.4589 10.7072
      vertex 0 0 1
      vertex 0 15.3174 10.7451
    endloop
  endfacet
  facet normal -1 0 0
    outer loop
      vertex 0 32.6423 12.2229
      vertex 0 47 23.5
      vertex 0 32.65 12.0766
    endloop
  endfacet
  facet normal -1 0 0
    outer loop
      vertex 0 32.6194 12.3677
      vertex 0 47 23.5
      vertex 0 32.6423 12.2229
    endloop
  endfacet
  facet normal -1 0 0
    outer loop
      vertex 0 32.5815 12.5092
      vertex 0 47 23.5
      vertex 0 32.6194 12.3677
    endloop
  endfacet
  facet normal -1 0 0
    outer loop
      vertex 0 32.529 12.646
      vertex 0 47 23.5
      vertex 0 32.5815 12.5092
    endloop
  endfacet
  facet normal -1 0 0
    outer loop
      vertex 0 32.4624 12.7766
      vertex 0 47 23.5
      vertex 0 32.529 12.646
    endloop
  endfacet
  facet normal -1 0 0
    outer loop
      vertex 0 32.3826 12.8995
      vertex 0 47 23.5
      vertex 0 32.4624 12.7766
    endloop
  endfacet
  facet normal -1 0 0
    outer loop
      vertex 0 32.2904 13.0134
      vertex 0 47 23.5
      vertex 0 32.3826 12.8995
    endloop
  endfacet
  facet normal -1 0 0
    outer loop
      vertex 0 32.1868 13.117
      vertex 0 47 23.5
      vertex 0 32.2904 13.0134
    endloop
  endfacet
  facet normal -1 0 0
    outer loop
      vertex 0 32.0729 13.2092
      vertex 0 47 23.5
      vertex 0 32.1868 13.117
    endloop
  endfacet
  facet normal -1 0 0
    outer loop
      vertex 0 31.95 13.289
      vertex 0 47 23.5
      vertex 0 32.0729 13.2092
    endloop
  endfacet
  facet normal -1 0 0
    outer loop
      vertex 0 31.8194 13.3556
      vertex 0 47 23.5
      vertex 0 31.95 13.289
    endloop
  endfacet
  facet normal -1 0 0
    outer loop
      vertex 0 31.6826 13.4081
      vertex 0 47 23.5
      vertex 0 31.8194 13.3556
    endloop
  endfacet
  facet normal -1 0 0
    outer loop
      vertex 0 31.5411 13.446
      vertex 0 47 23.5
      vertex 0 31.6826 13.4081
    endloop
  endfacet
  facet normal -1 0 0
    outer loop
      vertex 0 31.3963 13.4689
      vertex 0 47 23.5
      vertex 0 31.5411 13.446
    endloop
  endfacet
  facet normal -1 0 0
    outer loop
      vertex 0 31.25 13.4766
      vertex 0 47 23.5
      vertex 0 31.3963 13.4689
    endloop
  endfacet
  facet normal -1 0 0
    outer loop
      vertex 0 31.1037 13.4689
      vertex 0 47 23.5
      vertex 0 31.25 13.4766
    endloop
  endfacet
  facet normal -1 0 0
    outer loop
      vertex 0 30.9589 13.446
      vertex 0 47 23.5
      vertex 0 31.1037 13.4689
    endloop
  endfacet
  facet normal -1 0 0
    outer loop
      vertex 0 16.0411 13.446
      vertex 0 30.9589 13.446
      vertex 0 30.8174 13.4081
    endloop
  endfacet
  facet normal -1 0 0
    outer loop
      vertex 0 16.1826 13.4081
      vertex 0 30.8174 13.4081
      vertex 0 30.6806 13.3556
    endloop
  endfacet
  facet normal -1 0 0
    outer loop
      vertex 0 16.3194 13.3556
      vertex 0 30.6806 13.3556
      vertex 0 30.55 13.289
    endloop
  endfacet
  facet normal -1 0 0
    outer loop
      vertex 0 17.15 12.0766
      vertex 0 29.8577 12.2229
      vertex 0 29.85 12.0766
    endloop
  endfacet
  facet normal -1 0 0
    outer loop
      vertex 0 17.1423 12.2229
      vertex 0 29.8577 12.2229
      vertex 0 17.15 12.0766
    endloop
  endfacet
  facet normal -1 0 0
    outer loop
      vertex 0 29.8577 12.2229
      vertex 0 17.1423 12.2229
      vertex 0 29.8806 12.3677
    endloop
  endfacet
  facet normal -1 0 0
    outer loop
      vertex 0 17.1194 12.3677
      vertex 0 29.8806 12.3677
      vertex 0 17.1423 12.2229
    endloop
  endfacet
  facet normal -1 0 0
    outer loop
      vertex 0 29.8806 12.3677
      vertex 0 17.1194 12.3677
      vertex 0 29.9185 12.5092
    endloop
  endfacet
  facet normal -1 0 0
    outer loop
      vertex 0 17.0815 12.5092
      vertex 0 29.9185 12.5092
      vertex 0 17.1194 12.3677
    endloop
  endfacet
  facet normal -1 0 0
    outer loop
      vertex 0 29.9185 12.5092
      vertex 0 17.0815 12.5092
      vertex 0 29.971 12.646
    endloop
  endfacet
  facet normal -1 0 0
    outer loop
      vertex 0 17.029 12.646
      vertex 0 29.971 12.646
      vertex 0 17.0815 12.5092
    endloop
  endfacet
  facet normal -1 0 0
    outer loop
      vertex 0 29.971 12.646
      vertex 0 17.029 12.646
      vertex 0 30.0376 12.7766
    endloop
  endfacet
  facet normal -1 0 0
    outer loop
      vertex 0 16.9624 12.7766
      vertex 0 30.0376 12.7766
      vertex 0 17.029 12.646
    endloop
  endfacet
  facet normal -1 0 0
    outer loop
      vertex 0 30.0376 12.7766
      vertex 0 16.9624 12.7766
      vertex 0 30.1174 12.8995
    endloop
  endfacet
  facet normal -1 0 0
    outer loop
      vertex 0 16.8826 12.8995
      vertex 0 30.1174 12.8995
      vertex 0 16.9624 12.7766
    endloop
  endfacet
  facet normal -1 0 0
    outer loop
      vertex 0 30.1174 12.8995
      vertex 0 16.8826 12.8995
      vertex 0 30.2096 13.0134
    endloop
  endfacet
  facet normal -1 0 0
    outer loop
      vertex 0 16.7904 13.0134
      vertex 0 30.2096 13.0134
      vertex 0 16.8826 12.8995
    endloop
  endfacet
  facet normal -1 0 0
    outer loop
      vertex 0 30.2096 13.0134
      vertex 0 16.7904 13.0134
      vertex 0 30.3132 13.117
    endloop
  endfacet
  facet normal -1 0 0
    outer loop
      vertex 0 16.6868 13.117
      vertex 0 30.3132 13.117
      vertex 0 16.7904 13.0134
    endloop
  endfacet
  facet normal -1 0 0
    outer loop
      vertex 0 30.3132 13.117
      vertex 0 16.6868 13.117
      vertex 0 30.4271 13.2092
    endloop
  endfacet
  facet normal -1 0 0
    outer loop
      vertex 0 16.5729 13.2092
      vertex 0 30.4271 13.2092
      vertex 0 16.6868 13.117
    endloop
  endfacet
  facet normal -1 0 0
    outer loop
      vertex 0 30.4271 13.2092
      vertex 0 16.5729 13.2092
      vertex 0 30.55 13.289
    endloop
  endfacet
  facet normal -1 0 0
    outer loop
      vertex 0 16.45 13.289
      vertex 0 30.55 13.289
      vertex 0 16.5729 13.2092
    endloop
  endfacet
  facet normal -1 0 0
    outer loop
      vertex 0 16.3194 13.3556
      vertex 0 30.55 13.289
      vertex 0 16.45 13.289
    endloop
  endfacet
  facet normal -1 0 0
    outer loop
      vertex 0 30.6806 13.3556
      vertex 0 16.3194 13.3556
      vertex 0 16.1826 13.4081
    endloop
  endfacet
  facet normal -1 0 0
    outer loop
      vertex 0 30.8174 13.4081
      vertex 0 16.1826 13.4081
      vertex 0 16.0411 13.446
    endloop
  endfacet
  facet normal -1 0 0
    outer loop
      vertex 0 30.9589 13.446
      vertex 0 16.0411 13.446
      vertex 0 47 23.5
    endloop
  endfacet
  facet normal -1 0 0
    outer loop
      vertex 0 0 23.5
      vertex 0 16.0411 13.446
      vertex 0 15.8963 13.4689
    endloop
  endfacet
  facet normal -1 0 0
    outer loop
      vertex 0 0 23.5
      vertex 0 15.8963 13.4689
      vertex 0 15.75 13.4766
    endloop
  endfacet
  facet normal -1 0 0
    outer loop
      vertex 0 0 23.5
      vertex 0 15.75 13.4766
      vertex 0 15.6037 13.4689
    endloop
  endfacet
  facet normal -1 0 0
    outer loop
      vertex 0 0 23.5
      vertex 0 15.6037 13.4689
      vertex 0 15.4589 13.446
    endloop
  endfacet
  facet normal -1 0 0
    outer loop
      vertex 0 0 23.5
      vertex 0 15.4589 13.446
      vertex 0 15.3174 13.4081
    endloop
  endfacet
  facet normal -1 0 0
    outer loop
      vertex 0 0 23.5
      vertex 0 14.35 12.0766
      vertex 0 0 1
    endloop
  endfacet
  facet normal -1 0 0
    outer loop
      vertex 0 14.35 12.0766
      vertex 0 0 23.5
      vertex 0 14.3577 12.2229
    endloop
  endfacet
  facet normal -1 0 0
    outer loop
      vertex 0 14.3577 12.2229
      vertex 0 0 23.5
      vertex 0 14.3806 12.3677
    endloop
  endfacet
  facet normal -1 0 0
    outer loop
      vertex 0 14.3806 12.3677
      vertex 0 0 23.5
      vertex 0 14.4185 12.5092
    endloop
  endfacet
  facet normal -1 0 0
    outer loop
      vertex 0 14.4185 12.5092
      vertex 0 0 23.5
      vertex 0 14.471 12.646
    endloop
  endfacet
  facet normal -1 0 0
    outer loop
      vertex 0 14.471 12.646
      vertex 0 0 23.5
      vertex 0 14.5376 12.7766
    endloop
  endfacet
  facet normal -1 0 0
    outer loop
      vertex 0 14.5376 12.7766
      vertex 0 0 23.5
      vertex 0 14.6174 12.8995
    endloop
  endfacet
  facet normal -1 0 0
    outer loop
      vertex 0 14.6174 12.8995
      vertex 0 0 23.5
      vertex 0 14.7096 13.0134
    endloop
  endfacet
  facet normal -1 0 0
    outer loop
      vertex 0 16.0411 13.446
      vertex 0 0 23.5
      vertex 0 47 23.5
    endloop
  endfacet
  facet normal -1 0 0
    outer loop
      vertex 0 15.1806 13.3556
      vertex 0 0 23.5
      vertex 0 15.3174 13.4081
    endloop
  endfacet
  facet normal -1 0 0
    outer loop
      vertex 0 15.05 13.289
      vertex 0 0 23.5
      vertex 0 15.1806 13.3556
    endloop
  endfacet
  facet normal -1 0 0
    outer loop
      vertex 0 14.9271 13.2092
      vertex 0 0 23.5
      vertex 0 15.05 13.289
    endloop
  endfacet
  facet normal -1 0 0
    outer loop
      vertex 0 14.8132 13.117
      vertex 0 0 23.5
      vertex 0 14.9271 13.2092
    endloop
  endfacet
  facet normal -1 0 0
    outer loop
      vertex 0 14.7096 13.0134
      vertex 0 0 23.5
      vertex 0 14.8132 13.117
    endloop
  endfacet
  facet normal -0 0 1
    outer loop
      vertex 0 47 23.5
      vertex 5 0 23.5
      vertex 5 47 23.5
    endloop
  endfacet
  facet normal 0 0 1
    outer loop
      vertex 5 0 23.5
      vertex 0 47 23.5
      vertex 0 0 23.5
    endloop
  endfacet
  facet normal 1 0 0
    outer loop
      vertex 5 47 23.5
      vertex 5 32.65 12.0766
      vertex 5 47 1
    endloop
  endfacet
  facet normal 1 0 0
    outer loop
      vertex 5 47 23.5
      vertex 5 32.6423 12.2229
      vertex 5 32.65 12.0766
    endloop
  endfacet
  facet normal 1 0 0
    outer loop
      vertex 5 47 23.5
      vertex 5 32.6194 12.3677
      vertex 5 32.6423 12.2229
    endloop
  endfacet
  facet normal 1 0 0
    outer loop
      vertex 5 47 23.5
      vertex 5 32.5815 12.5092
      vertex 5 32.6194 12.3677
    endloop
  endfacet
  facet normal 1 0 0
    outer loop
      vertex 5 47 23.5
      vertex 5 32.529 12.646
      vertex 5 32.5815 12.5092
    endloop
  endfacet
  facet normal 1 0 0
    outer loop
      vertex 5 47 23.5
      vertex 5 32.4624 12.7766
      vertex 5 32.529 12.646
    endloop
  endfacet
  facet normal 1 0 0
    outer loop
      vertex 5 47 23.5
      vertex 5 32.3826 12.8995
      vertex 5 32.4624 12.7766
    endloop
  endfacet
  facet normal 1 0 0
    outer loop
      vertex 5 47 23.5
      vertex 5 32.2904 13.0134
      vertex 5 32.3826 12.8995
    endloop
  endfacet
  facet normal 1 0 0
    outer loop
      vertex 5 47 23.5
      vertex 5 32.1868 13.117
      vertex 5 32.2904 13.0134
    endloop
  endfacet
  facet normal 1 0 0
    outer loop
      vertex 5 47 23.5
      vertex 5 32.0729 13.2092
      vertex 5 32.1868 13.117
    endloop
  endfacet
  facet normal 1 0 0
    outer loop
      vertex 5 47 23.5
      vertex 5 31.95 13.289
      vertex 5 32.0729 13.2092
    endloop
  endfacet
  facet normal 1 0 0
    outer loop
      vertex 5 47 23.5
      vertex 5 31.8194 13.3556
      vertex 5 31.95 13.289
    endloop
  endfacet
  facet normal 1 0 0
    outer loop
      vertex 5 47 23.5
      vertex 5 31.6826 13.4081
      vertex 5 31.8194 13.3556
    endloop
  endfacet
  facet normal 1 0 0
    outer loop
      vertex 5 47 23.5
      vertex 5 31.5411 13.446
      vertex 5 31.6826 13.4081
    endloop
  endfacet
  facet normal 1 0 0
    outer loop
      vertex 5 47 23.5
      vertex 5 31.3963 13.4689
      vertex 5 31.5411 13.446
    endloop
  endfacet
  facet normal 1 0 0
    outer loop
      vertex 5 47 23.5
      vertex 5 31.25 13.4766
      vertex 5 31.3963 13.4689
    endloop
  endfacet
  facet normal 1 0 0
    outer loop
      vertex 5 47 23.5
      vertex 5 31.1037 13.4689
      vertex 5 31.25 13.4766
    endloop
  endfacet
  facet normal 1 0 0
    outer loop
      vertex 5 47 23.5
      vertex 5 30.9589 13.446
      vertex 5 31.1037 13.4689
    endloop
  endfacet
  facet normal 1 0 0
    outer loop
      vertex 5 16.0411 13.446
      vertex 5 30.9589 13.446
      vertex 5 47 23.5
    endloop
  endfacet
  facet normal 1 0 0
    outer loop
      vertex 5 30.9589 13.446
      vertex 5 16.0411 13.446
      vertex 5 30.8174 13.4081
    endloop
  endfacet
  facet normal 1 0 -0
    outer loop
      vertex 5 16.1826 13.4081
      vertex 5 30.8174 13.4081
      vertex 5 16.0411 13.446
    endloop
  endfacet
  facet normal 1 0 0
    outer loop
      vertex 5 29.8577 12.2229
      vertex 5 17.15 12.0766
      vertex 5 29.85 12.0766
    endloop
  endfacet
  facet normal 1 0 0
    outer loop
      vertex 5 17.1423 12.2229
      vertex 5 29.8577 12.2229
      vertex 5 29.8806 12.3677
    endloop
  endfacet
  facet normal 1 0 0
    outer loop
      vertex 5 17.1194 12.3677
      vertex 5 29.8806 12.3677
      vertex 5 29.9185 12.5092
    endloop
  endfacet
  facet normal 1 0 0
    outer loop
      vertex 5 17.0815 12.5092
      vertex 5 29.9185 12.5092
      vertex 5 29.971 12.646
    endloop
  endfacet
  facet normal 1 0 0
    outer loop
      vertex 5 17.029 12.646
      vertex 5 29.971 12.646
      vertex 5 30.0376 12.7766
    endloop
  endfacet
  facet normal 1 0 0
    outer loop
      vertex 5 16.9624 12.7766
      vertex 5 30.0376 12.7766
      vertex 5 30.1174 12.8995
    endloop
  endfacet
  facet normal 1 0 0
    outer loop
      vertex 5 16.8826 12.8995
      vertex 5 30.1174 12.8995
      vertex 5 30.2096 13.0134
    endloop
  endfacet
  facet normal 1 0 0
    outer loop
      vertex 5 16.7904 13.0134
      vertex 5 30.2096 13.0134
      vertex 5 30.3132 13.117
    endloop
  endfacet
  facet normal 1 0 0
    outer loop
      vertex 5 16.6868 13.117
      vertex 5 30.3132 13.117
      vertex 5 30.4271 13.2092
    endloop
  endfacet
  facet normal 1 0 0
    outer loop
      vertex 5 16.5729 13.2092
      vertex 5 30.4271 13.2092
      vertex 5 30.55 13.289
    endloop
  endfacet
  facet normal 1 0 0
    outer loop
      vertex 5 30.8174 13.4081
      vertex 5 16.1826 13.4081
      vertex 5 30.6806 13.3556
    endloop
  endfacet
  facet normal 1 0 0
    outer loop
      vertex 5 29.8577 12.2229
      vertex 5 17.1423 12.2229
      vertex 5 17.15 12.0766
    endloop
  endfacet
  facet normal 1 0 0
    outer loop
      vertex 5 29.8806 12.3677
      vertex 5 17.1194 12.3677
      vertex 5 17.1423 12.2229
    endloop
  endfacet
  facet normal 1 0 0
    outer loop
      vertex 5 29.9185 12.5092
      vertex 5 17.0815 12.5092
      vertex 5 17.1194 12.3677
    endloop
  endfacet
  facet normal 1 0 0
    outer loop
      vertex 5 29.971 12.646
      vertex 5 17.029 12.646
      vertex 5 17.0815 12.5092
    endloop
  endfacet
  facet normal 1 0 0
    outer loop
      vertex 5 30.0376 12.7766
      vertex 5 16.9624 12.7766
      vertex 5 17.029 12.646
    endloop
  endfacet
  facet normal 1 0 0
    outer loop
      vertex 5 30.1174 12.8995
      vertex 5 16.8826 12.8995
      vertex 5 16.9624 12.7766
    endloop
  endfacet
  facet normal 1 0 0
    outer loop
      vertex 5 30.2096 13.0134
      vertex 5 16.7904 13.0134
      vertex 5 16.8826 12.8995
    endloop
  endfacet
  facet normal 1 0 0
    outer loop
      vertex 5 30.3132 13.117
      vertex 5 16.6868 13.117
      vertex 5 16.7904 13.0134
    endloop
  endfacet
  facet normal 1 0 0
    outer loop
      vertex 5 30.4271 13.2092
      vertex 5 16.5729 13.2092
      vertex 5 16.6868 13.117
    endloop
  endfacet
  facet normal 1 0 0
    outer loop
      vertex 5 30.55 13.289
      vertex 5 16.45 13.289
      vertex 5 16.5729 13.2092
    endloop
  endfacet
  facet normal 1 0 0
    outer loop
      vertex 5 30.55 13.289
      vertex 5 16.3194 13.3556
      vertex 5 16.45 13.289
    endloop
  endfacet
  facet normal 1 0 0
    outer loop
      vertex 5 30.6806 13.3556
      vertex 5 16.3194 13.3556
      vertex 5 30.55 13.289
    endloop
  endfacet
  facet normal 1 0 -0
    outer loop
      vertex 5 16.3194 13.3556
      vertex 5 30.6806 13.3556
      vertex 5 16.1826 13.4081
    endloop
  endfacet
  facet normal 1 -0 0
    outer loop
      vertex 5 0 23.5
      vertex 5 16.0411 13.446
      vertex 5 47 23.5
    endloop
  endfacet
  facet normal 1 0 0
    outer loop
      vertex 5 16.0411 13.446
      vertex 5 0 23.5
      vertex 5 15.8963 13.4689
    endloop
  endfacet
  facet normal 1 0 0
    outer loop
      vertex 5 15.8963 13.4689
      vertex 5 0 23.5
      vertex 5 15.75 13.4766
    endloop
  endfacet
  facet normal 1 0 0
    outer loop
      vertex 5 15.75 13.4766
      vertex 5 0 23.5
      vertex 5 15.6037 13.4689
    endloop
  endfacet
  facet normal 1 0 0
    outer loop
      vertex 5 15.6037 13.4689
      vertex 5 0 23.5
      vertex 5 15.4589 13.446
    endloop
  endfacet
  facet normal 1 0 0
    outer loop
      vertex 5 14.3577 12.2229
      vertex 5 0 23.5
      vertex 5 14.35 12.0766
    endloop
  endfacet
  facet normal 1 0 0
    outer loop
      vertex 5 14.3806 12.3677
      vertex 5 0 23.5
      vertex 5 14.3577 12.2229
    endloop
  endfacet
  facet normal 1 0 0
    outer loop
      vertex 5 14.4185 12.5092
      vertex 5 0 23.5
      vertex 5 14.3806 12.3677
    endloop
  endfacet
  facet normal 1 0 0
    outer loop
      vertex 5 14.471 12.646
      vertex 5 0 23.5
      vertex 5 14.4185 12.5092
    endloop
  endfacet
  facet normal 1 0 0
    outer loop
      vertex 5 14.5376 12.7766
      vertex 5 0 23.5
      vertex 5 14.471 12.646
    endloop
  endfacet
  facet normal 1 0 0
    outer loop
      vertex 5 14.6174 12.8995
      vertex 5 0 23.5
      vertex 5 14.5376 12.7766
    endloop
  endfacet
  facet normal 1 0 0
    outer loop
      vertex 5 14.7096 13.0134
      vertex 5 0 23.5
      vertex 5 14.6174 12.8995
    endloop
  endfacet
  facet normal 1 0 0
    outer loop
      vertex 5 14.8132 13.117
      vertex 5 0 23.5
      vertex 5 14.7096 13.0134
    endloop
  endfacet
  facet normal 1 0 0
    outer loop
      vertex 5 14.9271 13.2092
      vertex 5 0 23.5
      vertex 5 14.8132 13.117
    endloop
  endfacet
  facet normal 1 0 0
    outer loop
      vertex 5 15.05 13.289
      vertex 5 0 23.5
      vertex 5 14.9271 13.2092
    endloop
  endfacet
  facet normal 1 0 0
    outer loop
      vertex 5 15.1806 13.3556
      vertex 5 0 23.5
      vertex 5 15.05 13.289
    endloop
  endfacet
  facet normal 1 0 0
    outer loop
      vertex 5 15.3174 13.4081
      vertex 5 0 23.5
      vertex 5 15.1806 13.3556
    endloop
  endfacet
  facet normal 1 0 0
    outer loop
      vertex 5 15.4589 13.446
      vertex 5 0 23.5
      vertex 5 15.3174 13.4081
    endloop
  endfacet
  facet normal 1 -0 0
    outer loop
      vertex 5 47 1
      vertex 5 52 0
      vertex 5 52 1
    endloop
  endfacet
  facet normal 1 -0 0
    outer loop
      vertex 5 32.6423 11.9303
      vertex 5 47 1
      vertex 5 32.65 12.0766
    endloop
  endfacet
  facet normal 1 -0 0
    outer loop
      vertex 5 32.6194 11.7855
      vertex 5 47 1
      vertex 5 32.6423 11.9303
    endloop
  endfacet
  facet normal 1 -0 0
    outer loop
      vertex 5 32.5815 11.644
      vertex 5 47 1
      vertex 5 32.6194 11.7855
    endloop
  endfacet
  facet normal 1 -0 0
    outer loop
      vertex 5 32.529 11.5072
      vertex 5 47 1
      vertex 5 32.5815 11.644
    endloop
  endfacet
  facet normal 1 -0 0
    outer loop
      vertex 5 32.4624 11.3766
      vertex 5 47 1
      vertex 5 32.529 11.5072
    endloop
  endfacet
  facet normal 1 -0 0
    outer loop
      vertex 5 32.3826 11.2537
      vertex 5 47 1
      vertex 5 32.4624 11.3766
    endloop
  endfacet
  facet normal 1 -0 0
    outer loop
      vertex 5 32.2904 11.1398
      vertex 5 47 1
      vertex 5 32.3826 11.2537
    endloop
  endfacet
  facet normal 1 -0 0
    outer loop
      vertex 5 32.1868 11.0362
      vertex 5 47 1
      vertex 5 32.2904 11.1398
    endloop
  endfacet
  facet normal 1 -0 0
    outer loop
      vertex 5 32.0729 10.944
      vertex 5 47 1
      vertex 5 32.1868 11.0362
    endloop
  endfacet
  facet normal 1 -0 0
    outer loop
      vertex 5 31.95 10.8642
      vertex 5 47 1
      vertex 5 32.0729 10.944
    endloop
  endfacet
  facet normal 1 -0 0
    outer loop
      vertex 5 31.8194 10.7976
      vertex 5 47 1
      vertex 5 31.95 10.8642
    endloop
  endfacet
  facet normal 1 -0 0
    outer loop
      vertex 5 31.6826 10.7451
      vertex 5 47 1
      vertex 5 31.8194 10.7976
    endloop
  endfacet
  facet normal 1 -0 0
    outer loop
      vertex 5 31.5411 10.7072
      vertex 5 47 1
      vertex 5 31.6826 10.7451
    endloop
  endfacet
  facet normal 1 -0 0
    outer loop
      vertex 5 31.3963 10.6843
      vertex 5 47 1
      vertex 5 31.5411 10.7072
    endloop
  endfacet
  facet normal 1 -0 0
    outer loop
      vertex 5 31.25 10.6766
      vertex 5 47 1
      vertex 5 31.3963 10.6843
    endloop
  endfacet
  facet normal 1 0 0
    outer loop
      vertex 5 31.1037 10.6843
      vertex 5 47 1
      vertex 5 31.25 10.6766
    endloop
  endfacet
  facet normal 1 0 0
    outer loop
      vertex 5 30.9589 10.7072
      vertex 5 47 1
      vertex 5 31.1037 10.6843
    endloop
  endfacet
  facet normal 1 0 0
    outer loop
      vertex 5 16.0411 10.7072
      vertex 5 30.9589 10.7072
      vertex 5 30.8174 10.7451
    endloop
  endfacet
  facet normal 1 0 0
    outer loop
      vertex 5 16.1826 10.7451
      vertex 5 30.8174 10.7451
      vertex 5 30.6806 10.7976
    endloop
  endfacet
  facet normal 1 0 0
    outer loop
      vertex 5 16.3194 10.7976
      vertex 5 30.6806 10.7976
      vertex 5 30.55 10.8642
    endloop
  endfacet
  facet normal 1 -0 0
    outer loop
      vertex 5 17.15 12.0766
      vertex 5 29.8577 11.9303
      vertex 5 29.85 12.0766
    endloop
  endfacet
  facet normal 1 0 0
    outer loop
      vertex 5 17.1423 11.9303
      vertex 5 29.8577 11.9303
      vertex 5 17.15 12.0766
    endloop
  endfacet
  facet normal 1 0 0
    outer loop
      vertex 5 29.8577 11.9303
      vertex 5 17.1423 11.9303
      vertex 5 29.8806 11.7855
    endloop
  endfacet
  facet normal 1 0 0
    outer loop
      vertex 5 17.1194 11.7855
      vertex 5 29.8806 11.7855
      vertex 5 17.1423 11.9303
    endloop
  endfacet
  facet normal 1 0 0
    outer loop
      vertex 5 29.8806 11.7855
      vertex 5 17.1194 11.7855
      vertex 5 29.9185 11.644
    endloop
  endfacet
  facet normal 1 0 0
    outer loop
      vertex 5 17.0815 11.644
      vertex 5 29.9185 11.644
      vertex 5 17.1194 11.7855
    endloop
  endfacet
  facet normal 1 0 0
    outer loop
      vertex 5 29.9185 11.644
      vertex 5 17.0815 11.644
      vertex 5 29.971 11.5072
    endloop
  endfacet
  facet normal 1 0 0
    outer loop
      vertex 5 17.029 11.5072
      vertex 5 29.971 11.5072
      vertex 5 17.0815 11.644
    endloop
  endfacet
  facet normal 1 0 0
    outer loop
      vertex 5 29.971 11.5072
      vertex 5 17.029 11.5072
      vertex 5 30.0376 11.3766
    endloop
  endfacet
  facet normal 1 0 0
    outer loop
      vertex 5 16.9624 11.3766
      vertex 5 30.0376 11.3766
      vertex 5 17.029 11.5072
    endloop
  endfacet
  facet normal 1 0 0
    outer loop
      vertex 5 30.0376 11.3766
      vertex 5 16.9624 11.3766
      vertex 5 30.1174 11.2537
    endloop
  endfacet
  facet normal 1 0 0
    outer loop
      vertex 5 16.8826 11.2537
      vertex 5 30.1174 11.2537
      vertex 5 16.9624 11.3766
    endloop
  endfacet
  facet normal 1 0 0
    outer loop
      vertex 5 30.1174 11.2537
      vertex 5 16.8826 11.2537
      vertex 5 30.2096 11.1398
    endloop
  endfacet
  facet normal 1 0 0
    outer loop
      vertex 5 16.7904 11.1398
      vertex 5 30.2096 11.1398
      vertex 5 16.8826 11.2537
    endloop
  endfacet
  facet normal 1 0 0
    outer loop
      vertex 5 30.2096 11.1398
      vertex 5 16.7904 11.1398
      vertex 5 30.3132 11.0362
    endloop
  endfacet
  facet normal 1 0 0
    outer loop
      vertex 5 16.6868 11.0362
      vertex 5 30.3132 11.0362
      vertex 5 16.7904 11.1398
    endloop
  endfacet
  facet normal 1 0 0
    outer loop
      vertex 5 30.3132 11.0362
      vertex 5 16.6868 11.0362
      vertex 5 30.4271 10.944
    endloop
  endfacet
  facet normal 1 0 0
    outer loop
      vertex 5 16.5729 10.944
      vertex 5 30.4271 10.944
      vertex 5 16.6868 11.0362
    endloop
  endfacet
  facet normal 1 0 0
    outer loop
      vertex 5 30.4271 10.944
      vertex 5 16.5729 10.944
      vertex 5 30.55 10.8642
    endloop
  endfacet
  facet normal 1 0 0
    outer loop
      vertex 5 16.45 10.8642
      vertex 5 30.55 10.8642
      vertex 5 16.5729 10.944
    endloop
  endfacet
  facet normal 1 0 0
    outer loop
      vertex 5 16.3194 10.7976
      vertex 5 30.55 10.8642
      vertex 5 16.45 10.8642
    endloop
  endfacet
  facet normal 1 0 0
    outer loop
      vertex 5 30.6806 10.7976
      vertex 5 16.3194 10.7976
      vertex 5 16.1826 10.7451
    endloop
  endfacet
  facet normal 1 0 0
    outer loop
      vertex 5 30.8174 10.7451
      vertex 5 16.1826 10.7451
      vertex 5 16.0411 10.7072
    endloop
  endfacet
  facet normal 1 0 0
    outer loop
      vertex 5 30.9589 10.7072
      vertex 5 16.0411 10.7072
      vertex 5 47 1
    endloop
  endfacet
  facet normal 1 0 0
    outer loop
      vertex 5 0 1
      vertex 5 16.0411 10.7072
      vertex 5 15.8963 10.6843
    endloop
  endfacet
  facet normal 1 0 0
    outer loop
      vertex 5 0 1
      vertex 5 15.8963 10.6843
      vertex 5 15.75 10.6766
    endloop
  endfacet
  facet normal 1 0 0
    outer loop
      vertex 5 0 1
      vertex 5 15.75 10.6766
      vertex 5 15.6037 10.6843
    endloop
  endfacet
  facet normal 1 0 0
    outer loop
      vertex 5 0 1
      vertex 5 15.6037 10.6843
      vertex 5 15.4589 10.7072
    endloop
  endfacet
  facet normal 1 0 0
    outer loop
      vertex 5 0 1
      vertex 5 15.4589 10.7072
      vertex 5 15.3174 10.7451
    endloop
  endfacet
  facet normal 1 0 0
    outer loop
      vertex 5 0 1
      vertex 5 14.35 12.0766
      vertex 5 0 23.5
    endloop
  endfacet
  facet normal 1 0 0
    outer loop
      vertex 5 14.35 12.0766
      vertex 5 0 1
      vertex 5 14.3577 11.9303
    endloop
  endfacet
  facet normal 1 0 0
    outer loop
      vertex 5 14.3577 11.9303
      vertex 5 0 1
      vertex 5 14.3806 11.7855
    endloop
  endfacet
  facet normal 1 0 0
    outer loop
      vertex 5 14.3806 11.7855
      vertex 5 0 1
      vertex 5 14.4185 11.644
    endloop
  endfacet
  facet normal 1 0 0
    outer loop
      vertex 5 14.4185 11.644
      vertex 5 0 1
      vertex 5 14.471 11.5072
    endloop
  endfacet
  facet normal 1 0 0
    outer loop
      vertex 5 14.471 11.5072
      vertex 5 0 1
      vertex 5 14.5376 11.3766
    endloop
  endfacet
  facet normal 1 0 0
    outer loop
      vertex 5 14.5376 11.3766
      vertex 5 0 1
      vertex 5 14.6174 11.2537
    endloop
  endfacet
  facet normal 1 0 0
    outer loop
      vertex 5 14.6174 11.2537
      vertex 5 0 1
      vertex 5 14.7096 11.1398
    endloop
  endfacet
  facet normal 1 0 0
    outer loop
      vertex 5 14.7096 11.1398
      vertex 5 0 1
      vertex 5 14.8132 11.0362
    endloop
  endfacet
  facet normal 1 0 0
    outer loop
      vertex 5 0 1
      vertex 5 14.9271 10.944
      vertex 5 14.8132 11.0362
    endloop
  endfacet
  facet normal 1 0 0
    outer loop
      vertex 5 0 1
      vertex 5 15.05 10.8642
      vertex 5 14.9271 10.944
    endloop
  endfacet
  facet normal 1 0 0
    outer loop
      vertex 5 0 1
      vertex 5 15.1806 10.7976
      vertex 5 15.05 10.8642
    endloop
  endfacet
  facet normal 1 0 0
    outer loop
      vertex 5 0 1
      vertex 5 15.3174 10.7451
      vertex 5 15.1806 10.7976
    endloop
  endfacet
  facet normal 1 0 0
    outer loop
      vertex 5 16.0411 10.7072
      vertex 5 0 1
      vertex 5 47 1
    endloop
  endfacet
  facet normal 1 -0 0
    outer loop
      vertex 5 0 1
      vertex 5 52 0
      vertex 5 47 1
    endloop
  endfacet
  facet normal 1 0 0
    outer loop
      vertex 5 -5 0
      vertex 5 0 1
      vertex 5 -5 1
    endloop
  endfacet
  facet normal 1 0 0
    outer loop
      vertex 5 0 1
      vertex 5 -5 0
      vertex 5 52 0
    endloop
  endfacet
  facet normal 0 1 -0
    outer loop
      vertex 5 47 1
      vertex 0 47 23.5
      vertex 5 47 23.5
    endloop
  endfacet
  facet normal 0 1 0
    outer loop
      vertex 0 47 23.5
      vertex 5 47 1
      vertex 0 47 1
    endloop
  endfacet
  facet normal 0 0 1
    outer loop
      vertex 5 52 1
      vertex 0 47 1
      vertex 5 47 1
    endloop
  endfacet
  facet normal 0 0 1
    outer loop
      vertex 0 47 1
      vertex -1 52 1
      vertex 0 0 1
    endloop
  endfacet
  facet normal -0 0 1
    outer loop
      vertex -1 52 1
      vertex 0 47 1
      vertex 5 52 1
    endloop
  endfacet
  facet normal -0 0 1
    outer loop
      vertex 0 0 1
      vertex 5 -5 1
      vertex 5 0 1
    endloop
  endfacet
  facet normal 0 0 1
    outer loop
      vertex 0 0 1
      vertex -1 -5 1
      vertex 5 -5 1
    endloop
  endfacet
  facet normal 0 0 1
    outer loop
      vertex -1 -5 1
      vertex 0 0 1
      vertex -1 52 1
    endloop
  endfacet
  facet normal 0 -1 0
    outer loop
      vertex 0 0 1
      vertex 5 0 23.5
      vertex 0 0 23.5
    endloop
  endfacet
  facet normal 0 -1 -0
    outer loop
      vertex 5 0 23.5
      vertex 0 0 1
      vertex 5 0 1
    endloop
  endfacet
  facet normal -1 0 0
    outer loop
      vertex -1 -5 0
      vertex -1 52 1
      vertex -1 52 0
    endloop
  endfacet
  facet normal -1 -0 0
    outer loop
      vertex -1 52 1
      vertex -1 -5 0
      vertex -1 -5 1
    endloop
  endfacet
  facet normal 0 1 -0
    outer loop
      vertex 5 52 0
      vertex -1 52 1
      vertex 5 52 1
    endloop
  endfacet
  facet normal 0 1 0
    outer loop
      vertex -1 52 1
      vertex 5 52 0
      vertex -1 52 0
    endloop
  endfacet
  facet normal 0 0 -1
    outer loop
      vertex -1 -5 0
      vertex 5 52 0
      vertex 5 -5 0
    endloop
  endfacet
  facet normal -0 0 -1
    outer loop
      vertex 5 52 0
      vertex -1 -5 0
      vertex -1 52 0
    endloop
  endfacet
  facet normal 0 -1 0
    outer loop
      vertex -1 -5 0
      vertex 5 -5 1
      vertex -1 -5 1
    endloop
  endfacet
  facet normal 0 -1 -0
    outer loop
      vertex 5 -5 1
      vertex -1 -5 0
      vertex 5 -5 0
    endloop
  endfacet
endsolid OpenSCAD_Model
